<svg width="384" height="384" viewBox="0 0 384 384" fill="none" xmlns="http://www.w3.org/2000/svg">
<circle cx="192" cy="192" r="192" fill="white"/>
<path d="M207.512 83.5202L208.31 77.5216C205.621 75.9431 201.436 75.036 195.753 74.8002C190.07 74.5644 186.006 75.1293 183.562 76.4948L185.078 106.264C173.216 108.889 163.539 114.172 156.047 122.113C148.555 130.053 144.535 140.614 143.986 153.794C143.605 162.946 145.68 170.459 150.21 176.331C152.655 179.367 154.84 182.024 156.765 184.305C158.881 186.41 162.181 188.747 166.665 191.317C171.149 193.887 174.559 195.77 176.897 196.967C178.635 197.858 181.867 199.469 186.592 201.802L192.335 169.331C187.377 166.552 183.539 164.174 180.823 162.198C176.896 159.468 174.257 156.7 172.905 153.893C171.743 150.911 171.265 146.949 171.471 142.006C171.684 136.881 173.979 132.483 178.355 128.814C182.923 124.97 189.422 123.222 197.855 123.572C198.724 123.608 199.571 123.669 200.395 123.756L207.512 83.5202Z" fill="#426D77"/>
<path d="M197.432 172.117L191.734 204.335C191.825 204.38 191.917 204.425 192.01 204.471C199.939 208.1 206.814 212.786 212.635 218.529C218.647 224.096 221.462 231.456 221.081 240.609C220.487 254.887 210.383 261.619 190.768 260.805C187.553 260.672 184.608 260.324 181.931 259.76L175.446 296.43L173.931 307.966C176.253 309.53 180.255 310.429 185.938 310.665C191.621 310.901 195.868 310.344 198.679 308.993L197.106 280.597C212.413 279.032 224.763 273.493 234.157 263.981C243.558 254.286 248.537 242.757 249.093 229.394C249.649 216.031 246.761 206.009 240.428 199.328C234.286 192.472 224.107 185.54 209.892 178.532C205.267 176.225 201.113 174.087 197.432 172.117Z" fill="#426D77"/>
<path d="M172.834 279.592L176.613 258.225C172.959 256.837 169.989 254.903 167.703 252.422C163.15 247.099 161.121 238.488 161.616 226.589C152.817 226.224 146.225 227.968 141.841 231.82C137.465 235.489 135.14 240.619 134.866 247.209C134.477 256.545 138.48 264.045 146.876 269.711C154.158 274.463 162.81 277.757 172.834 279.592Z" fill="#426D77"/>
<path d="M205.805 124.775L209.312 104.943C218.458 105.925 226.719 108.694 234.093 113.248C242.695 118.373 246.771 126.335 246.321 137.135C246.055 143.542 243.733 148.58 239.357 152.249C234.988 155.736 229.435 156.789 222.698 155.409C223.132 144.975 221.253 137.195 217.059 132.07C214.282 128.55 210.53 126.118 205.805 124.775Z" fill="#426D77"/>
</svg>
