<svg width="250" height="250" viewBox="0 0 250 250" fill="none" xmlns="http://www.w3.org/2000/svg">
<path opacity="0.6" d="M217.361 186.556C211.795 208.607 184.82 182.808 184.392 204.217C183.963 225.625 142.217 226.91 119.309 224.127C96.4022 221.344 106.25 202.718 88.4811 201.434C70.7119 200.149 45.2357 206.013 35.8159 179.894C26.3961 153.776 30.2497 104.561 30.8919 78.0146C31.5342 51.4679 47.8047 65.8117 48.2329 46.1158C48.447 36.332 50.9304 28.6549 57.4172 22.7504C57.4172 22.7504 57.4472 22.7204 57.5114 22.6691C58.4919 21.8341 66.9911 14.9234 78.1664 16.2079C90.0524 17.5695 93.7347 22.0825 95.1092 34.4952C96.4836 46.9079 117.121 45.983 115.79 26.2828C114.458 6.60403 150.66 10.7016 161.677 11.7079C169.513 13.215 175.117 15.4544 176.256 18.7128C180.752 31.5579 176.47 48.2566 186.104 47.8285C195.738 47.4003 214.578 46.758 217.147 67.3103C219.716 87.8625 222.927 164.505 217.361 186.556Z" fill="#0B3C47"/>
<g opacity="0.5">
<path opacity="0.5" d="M107.72 212.279C129.948 212.279 125.069 184.63 125.611 174.6C126.153 164.571 121.545 150.475 107.178 150.475C92.8116 150.475 94.438 170.805 94.438 183.003C94.438 195.201 93.8959 212.279 107.72 212.279Z" fill="#05272E"/>
<g opacity="0.5">
<path opacity="0.5" d="M111.819 123.924C128.987 123.924 129.703 98.1719 129.345 79.2154C128.987 60.2589 130.06 36.6527 109.315 36.6527C88.5706 36.6527 92.8626 67.4123 92.5049 83.5074C92.1473 99.6025 91.0743 123.924 111.819 123.924Z" fill="#05272E"/>
<path opacity="0.5" d="M111.819 114.605C121.659 114.605 123.873 85.5781 110.835 85.5781C97.7977 85.5781 98.7816 114.605 111.819 114.605Z" fill="#E9B36B"/>
</g>
<g opacity="0.5">
<path opacity="0.5" d="M179.477 214.677C159.907 212.152 161.106 190.522 161.106 156.501C161.106 122.48 164.167 94.2426 171.652 79.6136C179.137 64.9846 201.931 49.3349 214.859 53.4175C227.787 57.5 233.23 74.1703 222.684 84.7168C212.137 95.2633 206.013 105.129 204.993 125.542C203.972 145.955 203.632 165.006 201.931 189.501C200.23 213.996 190.023 216.038 179.477 214.677Z" fill="#05272E"/>
<path opacity="0.5" d="M180.483 201.112C165.386 201.112 164.287 153.483 182.691 153.823C201.096 154.163 200.36 201.112 180.483 201.112Z" fill="#59A1B0"/>
</g>
</g>
<path d="M151.367 185.694L142.346 184.952L131.848 184.092L126.407 164.255C126.407 164.255 91.5306 147.296 86.8904 140.736C82.2501 134.176 78.2498 110.817 90.0899 108.898C101.93 106.978 108.168 114.017 111.528 121.857C111.528 121.857 114.708 124.299 119.188 127.812C126.054 133.194 135.97 141.085 142.173 146.534C145.267 149.255 147.438 151.363 147.846 152.254C148.325 153.298 148.804 156.246 149.247 159.988C150.433 170.002 151.367 185.694 151.367 185.694Z" fill="#416050"/>
<path d="M105.294 155.808C107.232 157.473 109.118 159.145 111.319 160.46C113.46 161.739 115.79 162.641 117.964 163.856C120.477 165.261 122.356 167.067 123.581 169.701C124.833 172.393 125.3 175.391 126.573 178.064C126.868 178.683 127.744 178.225 127.623 177.621C127.074 174.867 125.942 171.967 124.782 169.405C123.744 167.112 122.273 165.249 120.192 163.823C118.059 162.362 115.61 161.452 113.287 160.353C110.532 159.05 107.976 157.306 105.498 155.545C105.343 155.435 105.15 155.684 105.294 155.808Z" fill="white"/>
<path d="M126.49 180.22C126.552 181.76 126.444 183.499 126.863 184.99C126.978 185.399 127.604 185.417 127.71 184.99C128.093 183.447 127.722 181.621 127.368 180.102C127.255 179.614 126.47 179.714 126.49 180.22Z" fill="white"/>
<path d="M126.733 189.04C126.655 191.295 126.644 193.547 127.05 195.78C127.32 197.261 127.696 197.5 128.861 198.188C130.96 199.429 130.057 203.445 130.019 205.562C129.975 208.003 129.599 210.732 130.156 213.114C130.235 213.453 130.748 213.443 130.834 213.114C131.447 210.743 131.132 208.003 131.145 205.562C131.156 203.51 131.517 201.116 131.034 199.106C130.597 197.287 128.886 197.604 128.169 196.088C127.732 195.162 127.784 193.647 127.63 192.63C127.446 191.416 127.203 190.213 127.015 189.001C126.989 188.836 126.738 188.884 126.733 189.04Z" fill="white"/>
<path d="M138.786 140.812C140.424 142.373 142.12 143.854 143.838 145.327C145.392 146.658 146.872 148.183 148.58 149.311C149.127 149.673 149.624 148.9 149.242 148.452C146.554 145.298 142.593 142.607 139.095 140.411C138.85 140.257 138.575 140.612 138.786 140.812Z" fill="white"/>
<path d="M149.946 151.914C150.313 152.559 150.572 153.238 150.735 153.962C150.871 154.567 150.81 155.245 151.109 155.793C151.232 156.017 151.613 156.037 151.73 155.793C152.34 154.515 151.237 152.607 150.484 151.6C150.25 151.287 149.743 151.556 149.946 151.914Z" fill="white"/>
<path d="M151.552 157.797C151.404 162.829 151.966 168.058 152.278 173.092C152.35 174.27 152.575 175.607 153.753 176.181C154.615 176.602 155.921 176.262 156.562 177.184C157.199 178.101 156.804 180.659 156.822 181.749C156.833 182.426 157.806 182.408 157.86 181.749C157.963 180.494 158.111 177.376 157.104 176.323C156.709 175.91 156.249 176.014 155.788 175.813C154.813 175.389 153.82 175.022 153.537 173.84C153.401 173.272 153.457 172.593 153.444 172.021C153.334 167.299 153.31 162.306 152.062 157.728C151.984 157.442 151.561 157.506 151.552 157.797Z" fill="white"/>
<path d="M156.638 184.678C156.748 186.208 156.811 187.748 156.884 189.282C156.948 190.646 156.762 192.11 157.216 193.404C157.407 193.949 158.143 193.957 158.332 193.404C158.809 192.011 158.509 190.396 158.368 188.952C158.223 187.458 157.936 186.01 157.61 184.546C157.49 184.009 156.597 184.116 156.638 184.678Z" fill="white"/>
<path d="M157.754 197.012C158.134 201.518 160.779 205.987 163.854 209.22C164.321 209.712 165.191 209.067 164.807 208.485C162.275 204.658 159.653 201.454 158.381 196.927C158.287 196.592 157.723 196.643 157.754 197.012Z" fill="white"/>
<path d="M135.453 230.558C137.633 230.631 140.136 231.098 142.248 230.444C142.627 230.327 142.627 229.792 142.248 229.674C140.134 229.02 137.632 229.488 135.453 229.56C134.811 229.582 134.81 230.537 135.453 230.558Z" fill="#1A464F"/>
<path d="M146.608 231.006C149.263 231.702 152.248 231.35 154.974 231.354C158.007 231.359 161.041 231.387 164.073 231.327C167.106 231.267 170.14 231.215 173.172 231.132C176.163 231.05 179.311 231.303 182.272 230.927C182.604 230.884 182.605 230.45 182.272 230.408C179.308 230.031 176.165 230.283 173.172 230.203C170.14 230.121 167.106 230.067 164.073 230.007C161.041 229.948 158.007 229.976 154.974 229.98C152.25 229.984 149.26 229.633 146.608 230.329C146.274 230.416 146.274 230.918 146.608 231.006Z" fill="#1A464F"/>
<path d="M177.69 221.525C178.096 222.696 178.589 223.811 179.283 224.842C179.77 225.564 180.482 226.913 181.466 226.844C181.689 226.829 181.833 226.678 181.853 226.457C181.934 225.551 180.787 224.741 180.298 224.054C179.647 223.137 179.083 222.157 178.631 221.128C178.398 220.596 177.5 220.975 177.69 221.525Z" fill="#1A464F"/>
<path d="M142.346 184.952L131.848 184.092L126.407 164.255C126.407 164.255 91.5306 147.296 86.8904 140.736C82.2501 134.176 78.2498 110.817 90.0899 108.898C101.93 106.978 108.168 114.017 111.528 121.857C111.528 121.857 114.708 124.299 119.188 127.812C115.207 131.294 107.944 137.646 106.837 138.569C105.306 139.845 122.038 136.268 123.698 138.058C125.359 139.845 114.63 144.186 113.864 145.466C113.095 146.742 137.109 156.831 137.749 159.257C138.157 160.82 140.63 175.019 142.346 184.952Z" fill="#304B3B"/>
<path d="M94.9811 138.725C94.837 138.725 94.7076 138.625 94.6759 138.479C94.6397 138.31 94.7469 138.144 94.9158 138.107C102.968 136.373 115.172 133.638 116.079 133.151C116.16 133.066 116.286 133.031 116.404 133.07C116.568 133.125 116.657 133.302 116.602 133.466C116.531 133.679 116.383 134.123 95.0472 138.718C95.025 138.723 95.003 138.725 94.9811 138.725ZM116.009 133.267C116.009 133.267 116.009 133.268 116.009 133.268C116.009 133.268 116.009 133.267 116.009 133.267ZM116.01 133.267C116.01 133.267 116.01 133.267 116.009 133.267C116.01 133.267 116.01 133.267 116.01 133.267Z" fill="#1A2D3C"/>
<path d="M101.492 141.004C101.331 141.004 101.194 140.88 101.181 140.717C101.167 140.545 101.296 140.394 101.468 140.38L119.699 138.915C119.871 138.905 120.022 139.029 120.035 139.202C120.049 139.374 119.921 139.524 119.749 139.538L101.518 141.003C101.509 141.004 101.501 141.004 101.492 141.004Z" fill="#1A2D3C"/>
<path d="M139.889 178.678C139.737 178.678 139.604 178.568 139.58 178.414L136.345 157.733C133.867 156.124 103.612 136.489 102.143 135.472C102.001 135.374 101.966 135.179 102.064 135.037C102.163 134.895 102.358 134.86 102.499 134.958C103.99 135.99 136.474 157.071 136.802 157.284C136.877 157.333 136.927 157.41 136.941 157.498L140.198 178.317C140.224 178.488 140.108 178.648 139.937 178.675C139.921 178.677 139.905 178.678 139.889 178.678Z" fill="#1A2D3C"/>
<path d="M149.247 159.988C147.159 160.196 144.862 159.521 143.308 157.923C140.65 155.183 138.671 150.637 142.173 146.534C145.267 149.255 147.438 151.363 147.846 152.254C148.325 153.298 148.804 156.246 149.247 159.988Z" fill="#5A7F6A"/>
<path d="M141.708 149.497C141.697 149.497 141.686 149.496 141.675 149.495L139.007 149.217C138.835 149.199 138.711 149.046 138.728 148.874C138.746 148.702 138.905 148.582 139.072 148.596L141.74 148.874C141.912 148.892 142.037 149.045 142.019 149.217C142.002 149.378 141.866 149.497 141.708 149.497Z" fill="#1A2D3C"/>
<path d="M139.206 151.832C139.069 151.832 138.944 151.742 138.905 151.604C138.859 151.438 138.955 151.265 139.122 151.218L140.9 150.718C141.07 150.671 141.239 150.769 141.286 150.934C141.333 151.101 141.236 151.273 141.07 151.32L139.291 151.82C139.262 151.828 139.234 151.832 139.206 151.832Z" fill="#1A2D3C"/>
<path d="M145.378 161.56C145.36 161.56 145.341 161.559 145.323 161.556C145.153 161.526 145.039 161.364 145.07 161.194L145.57 158.359C145.599 158.189 145.761 158.075 145.931 158.105C146.101 158.135 146.215 158.297 146.185 158.467L145.685 161.302C145.658 161.454 145.527 161.56 145.378 161.56Z" fill="#1A2D3C"/>
<path d="M134.584 190.178L135.68 202.548L150.539 200.531L150.052 187.404L134.584 190.178Z" fill="#CB8173"/>
<path d="M178.623 226.198H148.353L146.4 222.211L145.977 226.198H135.236C133.331 216.045 134.287 200.533 134.287 200.533L150.625 199.008L153.068 198.782C157.704 210.429 178.623 226.198 178.623 226.198Z" fill="#23464E"/>
<path d="M142.058 226.198H135.236C133.331 216.045 134.287 200.533 134.287 200.533L150.625 199.008C145.358 204.146 140.974 214.838 142.058 226.198Z" fill="#122F36"/>
<path d="M144.042 222.521H136.744C136.571 222.521 136.432 222.381 136.432 222.209C136.432 222.036 136.571 221.896 136.744 221.896H144.042C144.214 221.896 144.354 222.036 144.354 222.209C144.354 222.381 144.214 222.521 144.042 222.521Z" fill="#1A2D3C"/>
<path d="M169.277 222.521H150.021C149.849 222.521 149.709 222.381 149.709 222.209C149.709 222.036 149.849 221.896 150.021 221.896H169.277C169.45 221.896 169.59 222.036 169.59 222.209C169.59 222.381 169.45 222.521 169.277 222.521Z" fill="#1A2D3C"/>
<path d="M147.735 207.411C147.652 207.411 147.569 207.378 147.507 207.312C147.389 207.187 147.395 206.989 147.52 206.871C147.657 206.741 150.945 203.68 156.253 202.246C156.421 202.201 156.591 202.3 156.636 202.467C156.681 202.633 156.583 202.805 156.416 202.85C151.267 204.24 147.982 207.295 147.949 207.326C147.889 207.382 147.812 207.411 147.735 207.411Z" fill="#1A2D3C"/>
<path d="M152.483 212.098C152.387 212.098 152.292 212.053 152.231 211.97C152.129 211.831 152.159 211.635 152.298 211.533C152.337 211.505 156.243 208.66 159.846 207.294C160.005 207.232 160.188 207.313 160.249 207.475C160.31 207.637 160.229 207.817 160.068 207.878C156.543 209.215 152.706 212.009 152.668 212.037C152.612 212.078 152.547 212.098 152.483 212.098Z" fill="#1A2D3C"/>
<path d="M155.248 180.147V193.27L129.663 193.558L128.873 181.5L128.763 179.859L155.248 180.147Z" fill="#5A7F6A"/>
<path d="M155.248 188.23V193.27L129.663 193.558L128.873 181.5C132.431 181.292 144.428 180.674 144.489 181.556C144.562 182.517 146.448 187.9 155.248 188.23Z" fill="#364E41"/>
<path d="M139.412 191.533C139.255 191.533 139.119 191.415 139.102 191.255L138.042 181.588C138.022 181.416 138.147 181.262 138.318 181.243C138.492 181.225 138.644 181.348 138.663 181.52L139.723 191.187C139.742 191.358 139.618 191.512 139.447 191.531C139.435 191.533 139.423 191.533 139.412 191.533Z" fill="#1A2D3C"/>
<path d="M142.005 190.502C141.858 190.502 141.726 190.397 141.698 190.247L140.49 183.732C140.459 183.562 140.571 183.399 140.741 183.368C140.907 183.335 141.073 183.448 141.105 183.618L142.313 190.133C142.344 190.302 142.232 190.466 142.063 190.497C142.043 190.501 142.024 190.502 142.005 190.502Z" fill="#1A2D3C"/>
<path d="M91.1424 138.414C91.072 138.414 91.001 138.39 90.9426 138.342C90.8099 138.231 90.792 138.034 90.9025 137.902C91.8453 136.77 93.1984 134.974 93.2548 134.523C93.3291 133.928 93.2782 125.743 93.2524 122.639C93.2509 122.467 93.3897 122.325 93.5622 122.324C93.5632 122.324 93.564 122.324 93.5649 122.324C93.7364 122.324 93.8759 122.462 93.8774 122.634C93.8812 123.091 93.9695 133.843 93.8749 134.6C93.7754 135.396 91.7814 137.823 91.3826 138.302C91.3208 138.376 91.2319 138.414 91.1424 138.414Z" fill="#1A2D3C"/>
<path d="M101.62 178.113C101.62 179.028 98.3222 182.176 94.1138 185.819C86.7177 192.218 76.5146 200.144 76.5146 200.144L63.5085 185.878L75.1602 171.549C75.1602 171.549 70.7202 164.392 66.1035 156.258C61.7969 148.674 57.3333 140.237 56.1791 135.978C56.0535 135.522 55.9671 135.118 55.924 134.765C55.021 127.541 58.4522 113.632 67.1202 109.118C75.7923 104.603 89.0614 106.644 88.1584 125.79C88.1584 125.79 89.8975 132.229 92.1313 140.594C94.632 149.981 97.7491 161.79 99.712 169.649C100.642 173.375 101.314 176.213 101.537 177.481C101.592 177.783 101.62 177.999 101.62 178.113Z" fill="#5B8A72"/>
<path d="M52.6018 131.552C52.557 134.605 53.5259 137.301 54.5466 140.147C55.6213 143.142 56.6224 146.208 57.8953 149.125C58.177 149.77 59.2285 149.31 59.0263 148.648C58.1524 145.788 56.9842 142.987 55.9249 140.19C54.8699 137.404 53.4402 134.554 53.1767 131.552C53.1448 131.189 52.6073 131.176 52.6018 131.552Z" fill="white"/>
<path d="M60.3569 152.703C60.7242 153.323 61.0451 153.971 61.3484 154.625C61.6276 155.226 61.8629 155.877 62.3182 156.369C62.5323 156.601 62.9784 156.428 62.9588 156.104C62.8733 154.693 61.6687 153.392 60.8021 152.36C60.5925 152.11 60.1957 152.431 60.3569 152.703Z" fill="white"/>
<path d="M65.8841 162.104C67.8342 165.556 69.3725 169.279 70.3442 173.124C70.5391 173.895 71.7645 173.561 71.5375 172.795C70.359 168.817 68.6616 165.266 66.215 161.91C66.0726 161.715 65.76 161.884 65.8841 162.104Z" fill="white"/>
<path d="M64.6191 175.506C63.2748 175.113 62.1294 175.552 61.1039 176.462C59.3183 178.047 57.799 179.99 56.1448 181.712C53.8974 184.05 52.6854 187.25 55.2063 189.929C55.6249 190.374 56.4487 189.774 56.0715 189.262C53.934 186.362 55.5519 183.92 57.6586 181.605C59.1109 180.009 61.894 175.716 64.4154 176.245C64.8952 176.346 65.0964 175.645 64.6191 175.506Z" fill="white"/>
<path d="M53.7193 191.813C53.1136 192.507 52.4093 193.059 51.7287 193.672C51.119 194.221 51.9222 195.286 52.6139 194.819C53.4648 194.244 54.1406 193.423 54.735 192.597C55.1618 192.003 54.2008 191.261 53.7193 191.813Z" fill="white"/>
<path d="M48.5108 197.996C46.4043 200.308 43.5364 201.688 41.4425 204.052C39.0531 206.749 36.4888 209.449 34.3714 212.366C33.9271 212.978 34.8861 213.672 35.3996 213.159C37.9958 210.564 40.2107 207.533 42.5963 204.744C44.555 202.453 47.2257 200.933 49.0697 198.555C49.3719 198.165 48.8625 197.61 48.5108 197.996Z" fill="#1A464F"/>
<path d="M73.3851 207.423C73.0269 208.987 72.7673 210.534 72.627 212.133C72.5029 213.548 72.231 215.029 72.8038 216.353C73.0172 216.846 73.6536 216.597 73.8107 216.221C74.3248 214.991 74.0804 213.459 74.139 212.133C74.2065 210.609 74.3005 209.083 74.4123 207.562C74.4555 206.974 73.5161 206.851 73.3851 207.423Z" fill="#1A464F"/>
<path d="M72.7782 219.116C72.7015 222.322 72.7842 225.46 73.1977 228.643C73.5007 230.977 73.5219 234.11 75.0913 235.993C75.4832 236.463 76.2104 235.953 76.0721 235.422C74.6946 230.122 74.0242 224.578 73.6884 219.116C73.6526 218.535 72.7923 218.526 72.7782 219.116Z" fill="#1A464F"/>
<path d="M98.2426 157.016C99.7661 162.806 101.401 168.456 102.439 174.368C102.676 175.716 103.066 177.142 103.141 178.505C103.21 179.78 103.034 180.733 102.15 181.717C101.668 182.253 101.005 182.742 100.461 183.213C98.0273 185.317 95.4734 187.258 92.9258 189.219C92.3911 189.631 92.8916 190.556 93.4698 190.15C96.1698 188.253 98.7218 186.13 101.187 183.939C102.172 183.064 103.836 182.064 104.352 180.793C104.817 179.648 104.401 178.196 104.214 177.029C103.135 170.309 102.124 162.815 98.5563 156.884C98.4563 156.717 98.1926 156.826 98.2426 157.016Z" fill="white"/>
<path d="M91.0659 191.111C90.799 191.399 90.5159 191.678 90.2655 191.98C90.054 192.235 90.0294 192.495 90.1608 192.792C90.1644 192.8 90.168 192.808 90.1716 192.817C90.1446 192.717 90.1176 192.617 90.0907 192.517C90.0898 192.56 90.0866 192.602 90.0809 192.644C90.0458 192.977 90.4215 193.183 90.7025 193.118C90.7482 193.106 90.7944 193.096 90.8411 193.089C90.7361 193.089 90.631 193.089 90.5259 193.089C90.5377 193.093 90.5494 193.096 90.5612 193.1C90.7814 193.168 91.0557 193.096 91.2131 192.928C91.4814 192.64 91.7231 192.323 91.9748 192.02C92.1968 191.754 92.236 191.373 91.9748 191.111C91.7358 190.872 91.303 190.856 91.0659 191.111Z" fill="white"/>
<path d="M101.62 178.113C101.62 179.028 98.3222 182.176 94.1138 185.819C86.7177 192.218 76.5146 200.144 76.5146 200.144L63.5085 185.878L75.1602 171.549C75.1602 171.549 70.7202 164.392 66.1035 156.258C74.5085 164.824 88.4607 173.818 101.537 177.481C101.592 177.783 101.62 177.999 101.62 178.113Z" fill="#4A775F"/>
<path d="M92.1313 140.594C91.6288 140.587 91.0988 140.539 90.5414 140.453C77.8297 138.475 61.6516 143.92 63.6342 141.941C65.6128 139.958 70.732 135.668 69.9076 135.338C69.3148 135.102 62.8765 134.949 56.1791 135.978C56.0535 135.522 55.9671 135.118 55.924 134.765C55.021 127.541 58.4522 113.632 67.1202 109.118C75.7923 104.603 89.0614 106.644 88.1584 125.79C88.1584 125.79 89.8975 132.229 92.1313 140.594Z" fill="#4A775F"/>
<path d="M101.62 178.113C101.62 178.172 101.608 178.239 101.577 178.313C101.196 179.428 98.0553 182.408 94.1138 185.819C92.0803 182.584 91.6171 178.482 93.0421 175.161C94.1256 172.629 96.3044 170.552 99.712 169.649C100.866 174.262 101.62 177.512 101.62 178.113Z" fill="#82BE9B"/>
<path d="M101.577 178.313C101.196 179.428 98.0553 182.408 94.1138 185.819C92.0803 182.584 91.6171 178.482 93.0421 175.161C95.8804 176.421 98.7462 177.493 101.577 178.313Z" fill="#5B8A72"/>
<path d="M62.1086 138.731C62.0174 138.731 61.9271 138.691 61.8652 138.615C61.7568 138.48 61.7778 138.283 61.912 138.175C61.9698 138.128 67.7879 133.497 75.9401 132.819C84.9854 132.07 89.2267 136.418 89.4029 136.603C89.5215 136.728 89.5164 136.925 89.3915 137.044C89.2662 137.163 89.0686 137.158 88.95 137.034C88.9085 136.991 84.7207 132.716 75.9918 133.442C68.029 134.104 62.361 138.616 62.3047 138.661C62.2469 138.708 62.1775 138.731 62.1086 138.731Z" fill="#1A2D3C"/>
<path d="M69.7272 140.785C69.6448 140.785 69.5624 140.753 69.5009 140.688C69.3819 140.563 69.3866 140.365 69.5115 140.246C69.5725 140.188 75.7658 134.423 86.1802 136.664C86.3489 136.701 86.4563 136.867 86.4201 137.036C86.3839 137.204 86.2187 137.312 86.0488 137.275C75.9548 135.103 70.0018 140.642 69.9428 140.699C69.8824 140.756 69.8047 140.785 69.7272 140.785Z" fill="#1A2D3C"/>
<path d="M74.5532 183.19C74.4688 183.19 74.3848 183.156 74.3231 183.089C74.2063 182.962 74.2147 182.764 74.3418 182.648L85.0163 172.845L63.042 134.423C63.018 134.381 63.0042 134.335 63.0013 134.287C62.9903 134.105 62.7503 129.806 64.3099 126.31C64.3805 126.153 64.5646 126.083 64.7227 126.152C64.8804 126.223 64.951 126.408 64.8808 126.565C63.489 129.685 63.5972 133.604 63.6216 134.178L85.6826 172.751C85.755 172.878 85.7302 173.038 85.6227 173.136L74.7646 183.108C74.7046 183.163 74.6289 183.19 74.5532 183.19Z" fill="#1A2D3C"/>
<path d="M95.5947 175.368C95.5723 175.368 95.5493 175.366 95.5265 175.361L77.2752 171.29C77.1067 171.253 77.0005 171.086 77.0382 170.917C77.0756 170.749 77.2426 170.642 77.4111 170.68L95.6624 174.751C95.8309 174.788 95.9371 174.955 95.8994 175.124C95.8671 175.269 95.7379 175.368 95.5947 175.368Z" fill="#1A2D3C"/>
<path d="M89.6857 177.469C89.6397 177.469 89.5931 177.459 89.5489 177.437L79.307 172.448C79.152 172.372 79.0875 172.185 79.163 172.03C79.2383 171.875 79.4255 171.81 79.5809 171.886L89.8228 176.876C89.9778 176.951 90.0423 177.138 89.9668 177.293C89.9127 177.405 89.8014 177.469 89.6857 177.469Z" fill="#1A2D3C"/>
<path d="M96.438 172.616C96.3395 172.616 96.2425 172.57 96.1818 172.483L94.822 170.54C94.7229 170.399 94.7573 170.204 94.8987 170.105C95.0401 170.006 95.2352 170.04 95.3339 170.182L96.6937 172.124C96.7928 172.266 96.7584 172.461 96.617 172.56C96.5625 172.598 96.4998 172.616 96.438 172.616Z" fill="#1A2D3C"/>
<path d="M95.4665 173.782C95.3835 173.782 95.3007 173.749 95.2393 173.684L93.5881 171.935C93.4697 171.81 93.4753 171.612 93.6007 171.494C93.726 171.375 93.9242 171.381 94.0426 171.506L95.6938 173.255C95.8122 173.38 95.8065 173.578 95.6812 173.696C95.6207 173.753 95.5436 173.782 95.4665 173.782Z" fill="#1A2D3C"/>
<path d="M91.4842 183.009C91.3717 183.009 91.263 182.949 91.2071 182.842C91.1271 182.689 91.1861 182.5 91.3389 182.42L93.3787 181.352C93.5319 181.272 93.7203 181.331 93.8007 181.484C93.8806 181.637 93.8216 181.825 93.6688 181.906L91.629 182.974C91.5826 182.998 91.533 183.009 91.4842 183.009Z" fill="#1A2D3C"/>
<path d="M63.3172 188.347L55.5451 198.034L67.6646 206.863L76.3995 197.053L63.3172 188.347Z" fill="#CB8173"/>
<path d="M70.1648 244.827L48.3197 223.874L49.6695 219.644L46.6049 222.229L38.8533 214.794C44.5072 206.148 55.9341 195.615 55.9341 195.615L68.7806 205.824L70.7008 207.352C65.9836 218.967 70.1648 244.827 70.1648 244.827Z" fill="#23464E"/>
<path d="M43.7765 219.516L38.8533 214.794C44.5072 206.148 55.934 195.615 55.934 195.615L68.7806 205.824C61.4234 205.886 50.8577 210.568 43.7765 219.516Z" fill="#122F36"/>
<path d="M47.9698 218.323C47.8919 218.323 47.8141 218.294 47.7535 218.236L42.4866 213.184C42.3621 213.065 42.3578 212.867 42.4772 212.742C42.5968 212.617 42.7946 212.614 42.9191 212.733L48.186 217.785C48.3106 217.904 48.3148 218.102 48.1954 218.227C48.134 218.291 48.052 218.323 47.9698 218.323Z" fill="#1A2D3C"/>
<path d="M66.1819 235.792C66.1039 235.792 66.0262 235.763 65.9656 235.705L52.0685 222.375C51.944 222.255 51.9397 222.058 52.0591 221.933C52.179 221.808 52.3763 221.804 52.501 221.924L66.3981 235.254C66.5226 235.373 66.5269 235.571 66.4075 235.695C66.346 235.76 66.2641 235.792 66.1819 235.792Z" fill="#1A2D3C"/>
<path d="M70.4506 212.644C70.3998 212.644 70.3485 212.631 70.3007 212.605C65.6226 210.044 61.1371 209.975 61.0923 209.974C60.9198 209.973 60.781 209.832 60.7825 209.659C60.7841 209.487 60.9137 209.358 61.0974 209.349C61.2864 209.351 65.7782 209.417 70.601 212.057C70.7524 212.14 70.8079 212.33 70.7249 212.481C70.6681 212.585 70.5611 212.644 70.4506 212.644Z" fill="#1A2D3C"/>
<path d="M69.5774 218.787C69.5367 218.787 69.4952 218.779 69.4554 218.762C65.9863 217.287 61.2828 216.647 61.2358 216.641C61.0647 216.618 60.9444 216.461 60.9672 216.29C60.9902 216.119 61.1468 215.995 61.3184 216.022C61.3664 216.028 66.1538 216.679 69.6999 218.187C69.8588 218.254 69.9326 218.438 69.8653 218.597C69.8146 218.716 69.6991 218.787 69.5774 218.787Z" fill="#1A2D3C"/>
<path d="M85.1735 195.413L76.0892 204.884L57.4257 187.381L65.2023 178.132L66.2587 176.871L85.1735 195.413Z" fill="#82BE9B"/>
<path d="M79.578 201.246L76.0892 204.884L57.4257 187.381L65.2023 178.132C67.9141 180.445 76.9998 188.302 76.4337 188.981C75.8212 189.726 73.4562 194.916 79.578 201.246Z" fill="#5B8A72"/>
<path d="M66.0793 192.755C66.0128 192.755 65.9458 192.734 65.8891 192.69C65.7522 192.585 65.7265 192.389 65.8317 192.252L71.7582 184.541C71.8636 184.404 72.0599 184.379 72.1964 184.484C72.3334 184.589 72.359 184.785 72.2538 184.922L66.3273 192.633C66.2657 192.713 66.1731 192.755 66.0793 192.755Z" fill="#1A2D3C"/>
<path d="M68.6646 193.806C68.6056 193.806 68.5461 193.789 68.4932 193.754C68.349 193.66 68.3087 193.466 68.4035 193.322L72.0414 187.784C72.1364 187.639 72.3299 187.599 72.4742 187.694C72.6184 187.789 72.6587 187.983 72.5639 188.127L68.926 193.665C68.866 193.756 68.7663 193.806 68.6646 193.806Z" fill="#1A2D3C"/>
<path d="M183.115 84.507L181.843 94.8632L180.198 108.262C180.198 108.262 136.139 103.9 131.891 102.44C127.648 100.98 107.768 76.997 107.768 76.997L112.294 49.8425C112.294 49.8425 116.514 50.6472 119.364 55.2247C122.214 59.8021 144.105 79.9963 144.105 79.9963L183.115 84.507Z" fill="#8F2429"/>
<path d="M181.843 94.8632L180.198 108.262C180.198 108.262 136.139 103.9 131.891 102.44C127.648 100.98 107.768 76.997 107.768 76.997L112.294 49.8425C112.294 49.8425 123.227 83.8475 127.974 87.8871C132.716 91.9306 137.282 83.3214 140.092 82.7954C142.903 82.2654 140.972 88.7665 141.148 89.8225C141.325 90.8746 142.201 88.0637 145.015 88.2404C147.681 88.4092 164.397 95.2047 181.843 94.8632Z" fill="#802125"/>
<path d="M137.263 97.3169C137.23 97.3169 137.197 97.3118 137.164 97.3008C137 97.2461 136.912 97.0691 136.967 96.9053C137.072 96.5889 142.322 82.3543 142.545 81.7486C142.605 81.5867 142.784 81.5035 142.947 81.5635C143.109 81.6231 143.191 81.803 143.132 81.9647C141.24 87.0933 137.642 96.8575 137.559 97.1035C137.516 97.2343 137.394 97.3169 137.263 97.3169Z" fill="#1A2D3C"/>
<path d="M142.523 97.5273C142.515 97.5273 142.506 97.5269 142.498 97.5262C142.326 97.5124 142.198 97.3619 142.211 97.1899L143.263 84.0409C143.277 83.8686 143.431 83.7427 143.599 83.7542C143.772 83.7681 143.9 83.9186 143.886 84.0906L142.834 97.2396C142.821 97.4032 142.684 97.5273 142.523 97.5273Z" fill="#1A2D3C"/>
<path d="M176.5 104.68C176.486 104.68 176.471 104.679 176.456 104.677C176.285 104.653 176.166 104.495 176.191 104.324L178.715 86.4414C178.739 86.2703 178.901 86.1527 179.068 86.1757C179.239 86.1999 179.358 86.358 179.334 86.5289L176.809 104.412C176.787 104.568 176.653 104.68 176.5 104.68Z" fill="#1A2D3C"/>
<path d="M155.724 101.843C156.974 101.843 157.986 100.831 157.986 99.5816C157.986 98.3325 156.974 97.32 155.724 97.32C154.475 97.32 153.463 98.3325 153.463 99.5816C153.463 100.831 154.475 101.843 155.724 101.843Z" fill="#1A2D3C"/>
<path d="M167.243 103.368C168.492 103.368 169.505 102.356 169.505 101.107C169.505 99.8578 168.492 98.8453 167.243 98.8453C165.994 98.8453 164.981 99.8578 164.981 101.107C164.981 102.356 165.994 103.368 167.243 103.368Z" fill="#1A2D3C"/>
<path d="M88.5187 49.9524L84.9641 50.0303L84.2118 42.5898L84.1027 41.5219L87.7431 41.6544L88.1913 46.4407L88.5187 49.9524Z" fill="#BC6A5C"/>
<path d="M88.1913 46.4407C86.2113 45.6651 84.929 43.9033 84.2118 42.5898L84.1027 41.5219L87.7431 41.6544L88.1913 46.4407Z" fill="#1A2D3C"/>
<path d="M89.9684 43.4251C89.4772 43.8705 88.8237 44.0911 88.0994 44.116C86.6051 44.1826 84.8194 43.4251 83.5998 42.1264C83.1419 41.6436 82.809 41.1024 82.5634 40.553C81.81 38.9296 81.8308 37.2938 81.8308 37.2938C81.7018 36.3281 81.6934 35.4498 81.8516 34.6798C82.0514 33.7099 82.5176 32.9274 83.3334 32.3987C83.8163 32.0907 84.4198 31.8701 85.1607 31.7536C88.4824 31.2374 90.3139 33.8015 90.5844 36.3281C90.855 38.8547 91.4793 42.0639 89.9684 43.4251Z" fill="#CB8173"/>
<path d="M88.0994 44.116C86.6051 44.1826 84.8194 43.4251 83.5998 42.1264C83.1419 41.6435 82.809 41.1024 82.5634 40.553C81.81 38.9296 81.8308 37.2938 81.8308 37.2938C81.7018 36.3281 81.6934 35.4498 81.8516 34.6798C82.0514 33.7099 82.5176 32.9274 83.3334 32.3987C83.3792 32.4445 83.4167 32.4986 83.4417 32.5611C83.7913 33.4269 84.5863 34.2261 84.5863 34.2261C84.5863 34.2261 85.0109 41.4146 88.0994 44.116Z" fill="#BC6A5C"/>
<path d="M83.8428 39.3387L83.9205 40.5053L82.5621 40.5536C81.811 38.9279 81.8318 37.292 81.8318 37.292C81.7007 36.3278 81.6917 35.4487 81.8508 34.6808C82.731 34.5645 84.2119 36.1142 84.2119 36.1142L84.4331 38.8055L83.8428 39.3387Z" fill="#1A2D3C"/>
<path d="M90.676 35.2334C90.676 35.2334 88.3783 36.403 85.3564 36.6652C84.0202 36.7859 82.5467 36.7277 81.0649 36.3114C81.0649 36.3114 80.94 35.7245 80.9234 34.892C80.8651 33.0189 81.3105 29.8846 84.8361 29.3477C84.861 29.3435 84.8902 29.3393 84.9151 29.3352C88.5281 28.8398 89.8809 31.5537 90.3804 33.4685C90.6427 34.4591 90.676 35.2334 90.676 35.2334Z" fill="#BA233E"/>
<path d="M85.3564 36.6652C84.0202 36.7859 82.5467 36.7277 81.0649 36.3114C81.0649 36.3114 80.94 35.7245 80.9234 34.892C80.8651 33.0189 81.3105 29.8846 84.8361 29.3476C84.861 29.3435 84.8902 29.3393 84.9151 29.3352C84.2325 32.2072 84.7278 34.8254 85.3564 36.6652Z" fill="#8F2429"/>
<path d="M90.676 35.2334C90.676 35.2334 88.2285 36.4779 85.0692 36.6861C83.8121 36.7735 82.4385 36.6944 81.0649 36.3115C81.0649 36.3115 80.94 35.7245 80.9234 34.892C81.8016 35.0211 83.1087 35.1459 84.5822 35.0669C86.4178 34.9753 88.5198 34.5715 90.3804 33.4685C90.6427 34.4592 90.676 35.2334 90.676 35.2334Z" fill="#E09433"/>
<path d="M85.0692 36.6861C83.8121 36.7735 82.4385 36.6944 81.0649 36.3115C81.0649 36.3115 80.94 35.7245 80.9234 34.892C81.8017 35.0211 83.1087 35.1459 84.5822 35.0669C84.7237 35.6621 84.8944 36.2032 85.0692 36.6861Z" fill="#C17D34"/>
<path d="M78.6688 35.6321H78.6688C78.4802 36.0321 78.6178 36.5097 78.9945 36.7412C80.1098 37.4264 82.6914 38.5632 86.706 37.7596C90.5283 36.9946 92.1814 35.5836 92.8385 34.7837C93.0938 34.4729 93.0906 34.0266 92.8318 33.7187V33.7187C92.5179 33.3452 91.9572 33.3217 91.6092 33.6636C90.8029 34.4559 89.1431 35.6944 86.4023 36.0534C83.261 36.4649 80.9203 35.7008 79.7949 35.2029C79.3677 35.0139 78.868 35.2096 78.6688 35.6321Z" fill="#BA233E"/>
<path d="M83.2081 39.2326C83.2081 39.2326 82.1721 37.7115 80.965 38.5182C79.7579 39.3249 81.0181 43.589 84.1774 41.7281L83.2081 39.2326Z" fill="#BC6A5C"/>
<path d="M114.455 113.566L111.786 101.627C115.307 82.1869 112.48 49.8268 112.48 49.8268C101.732 50.714 86.4291 50.4274 86.4291 50.4274C72.8773 51.9584 62.4269 48.7354 62.4269 48.7354L57.8579 74.1325L62.1835 97.9527C62.1835 97.9527 55.7813 116.957 52.3151 127.465C63.4927 132.805 79.8015 137.026 87.0022 138.015L95.0815 125.072L95.4858 124.428L99.7963 136.857C109.116 133.548 120.622 123.109 120.622 123.109L114.455 113.566Z" fill="#BA233E"/>
<path d="M93.6523 47.6597C97.8049 48.5384 102.036 48.7974 106.273 48.6267C108.262 48.5465 110.376 48.1269 112.351 48.5108C114.697 48.9667 116.339 50.3621 117.783 52.1624C118.25 52.7436 119.231 51.9839 118.818 51.3642C116.679 48.155 112.987 46.9474 109.282 47.2017C104.073 47.5594 98.9249 47.4967 93.7128 47.2128C93.4587 47.199 93.4004 47.6065 93.6523 47.6597Z" fill="white"/>
<path d="M65.2042 47.2594C69.3251 48.1018 73.4361 48.6672 77.6137 49.1511C78.5492 49.2594 78.5465 47.7847 77.6137 47.682C73.5046 47.2297 69.4265 46.7991 65.2997 46.5537C64.899 46.5299 64.806 47.178 65.2042 47.2594Z" fill="white"/>
<path d="M120.044 53.5869C120.508 54.5319 121.204 55.6712 122.236 56.064C122.637 56.2168 123.087 55.6587 122.819 55.3055C122.508 54.8958 122.075 54.5984 121.699 54.2499C121.319 53.8969 120.957 53.5387 120.633 53.1321C120.353 52.7808 119.867 53.228 120.044 53.5869Z" fill="white"/>
<path d="M120.621 123.109C120.621 123.109 109.114 133.548 99.7944 136.857L95.7548 125.198L95.4839 124.428L95.0796 125.072L87.0003 138.015C79.8005 137.026 63.4928 132.806 52.3162 127.467C54.2162 121.711 56.9957 113.405 59.1195 107.068C60.8704 101.839 62.1816 97.9527 62.1816 97.9527L62.1031 96.3196L61.4711 82.8346C65.813 88.947 72.1413 94.6904 77.1702 98.3139C79.667 100.112 81.8419 101.388 83.2983 101.93C84.8137 102.491 86.6509 102.754 88.6452 102.813C94.632 102.997 102.024 101.345 106.272 100.379C111.937 99.0951 101.777 104.104 96.0767 106.986C93.1756 108.458 95.2853 111.091 99.7017 112.823C103.046 114.142 107.198 115.144 114.453 113.566L120.621 123.109Z" fill="#8F2429"/>
<path d="M57.2593 106.433C55.7328 108.777 54.6586 111.425 53.6316 114.019C52.5442 116.765 51.3292 119.687 50.9136 122.626C50.857 123.026 51.4379 123.388 51.6432 122.934C52.7918 120.393 53.4888 117.638 54.4803 115.03C55.5465 112.226 56.8765 109.52 57.8649 106.689C57.9936 106.32 57.4561 106.131 57.2593 106.433Z" fill="white"/>
<path d="M89.2812 104.964C89.2812 107.104 84.8569 108.819 83.2865 108.819C81.7162 108.819 80.2912 106.821 80.2912 106.821C80.2912 106.821 77.7237 109.388 74.8697 109.247C72.9422 109.149 64.435 107.881 59.1195 107.068C60.8704 101.839 62.1816 97.9527 62.1816 97.9527L62.1031 96.3196L77.1702 98.3139L86.4272 99.5427C86.4272 99.5427 87.8051 101.129 88.6452 102.813C89.0142 103.551 89.2812 104.309 89.2812 104.964Z" fill="#6D1C20"/>
<path d="M95.4808 122.219C95.4793 122.219 95.4779 122.219 95.4765 122.219C95.304 122.216 95.166 122.075 95.1683 121.902C95.2673 114.499 94.375 95.5829 94.366 95.3927C94.3579 95.2201 94.491 95.0738 94.6633 95.0657C94.8383 95.059 94.9821 95.1906 94.9902 95.3629C94.9994 95.5534 95.8925 114.489 95.7933 121.91C95.791 122.081 95.6514 122.219 95.4808 122.219Z" fill="#1A2D3C"/>
<path d="M90.3683 103.477C91.224 103.477 91.9176 102.783 91.9176 101.927C91.9176 101.071 91.224 100.378 90.3683 100.378C89.5126 100.378 88.819 101.071 88.819 101.927C88.819 102.783 89.5126 103.477 90.3683 103.477Z" fill="#1A2D3C"/>
<path d="M90.8657 115.921C91.7214 115.921 92.4151 115.228 92.4151 114.372C92.4151 113.516 91.7214 112.823 90.8657 112.823C90.01 112.823 89.3164 113.516 89.3164 114.372C89.3164 115.228 90.01 115.921 90.8657 115.921Z" fill="#1A2D3C"/>
<path d="M101.67 74.8125C103.489 78.5312 104.553 84.359 104.553 84.359L94.5423 92.1428L81.1727 87.2006C80.395 83.4878 80.672 75.5551 80.672 75.5551L74.7506 74.7267C71.903 62.7171 74.9891 53.6233 74.9891 53.6233C76.6303 53.1263 78.2347 52.7404 79.7963 52.4481C86.116 51.2436 91.6458 51.5184 95.3813 52.0213C98.5534 52.4539 100.44 53.0445 100.44 53.0445C103.165 57.7688 105.721 72.8134 105.721 72.8134L101.67 74.8125Z" fill="#8F2429"/>
<path d="M101.67 73.9919C103.489 77.8866 104.138 82.553 104.138 82.553L94.5423 92.1428L80.672 85.2719C79.8942 81.3833 80.672 74.7697 80.672 74.7697L74.836 73.4775C71.9884 60.8993 75.4424 50.276 75.4424 50.276C76.672 50.2544 78.4204 50.3759 79.7963 50.5685C86.116 49.307 91.6458 49.5948 95.3813 50.1214C98.3921 49.9003 100.523 50.0642 100.523 50.0642C103.248 55.0122 105.565 71.2852 105.565 71.2852L101.67 73.9919Z" fill="white"/>
<path d="M94.1566 91.1079C86.0058 77.7703 80.6781 54.5979 79.7963 50.5685C86.116 49.307 91.6458 49.5948 95.3813 50.1214C97.494 71.4934 94.1566 91.1079 94.1566 91.1079Z" fill="#5B8A72"/>
<path d="M93.8867 86.7602C93.725 86.7602 93.5879 86.6353 93.5754 86.4713C92.7067 74.9841 88.5557 56.052 88.5138 55.862C88.4766 55.6935 88.5832 55.5267 88.7518 55.4897C88.9213 55.452 89.0871 55.5591 89.1241 55.7277C89.1661 55.9179 93.3266 74.8934 94.1988 86.4241C94.2118 86.5963 94.0829 86.7464 93.9107 86.7594C93.9026 86.76 93.8947 86.7602 93.8867 86.7602Z" fill="#1A2D3C"/>
<path d="M83.1017 47.4749C84.6096 46.7209 89.2747 46.2026 91.3009 47.4749C91.3009 47.4749 91.9745 49.5547 92.0382 50.8945C92.0382 50.8945 91.3952 52.0457 88.615 52.6583C85.8348 53.2709 82.5363 51.4802 82.5363 51.4802L83.1017 47.4749Z" fill="#5B8A72"/>
<path d="M93.8871 52.1852C93.8687 52.7424 93.7707 53.1894 93.5931 53.3487C92.9869 53.8692 89.6555 53.018 89.6555 53.018C89.6555 53.018 88.9452 52.0872 89.3249 50.8808C89.3249 50.8808 89.4228 50.795 89.5943 50.6542C90.2985 50.0847 92.1969 48.615 92.9256 48.8109C93.5625 48.9885 93.93 50.8808 93.8871 52.1852Z" fill="#BA233E"/>
<path d="M93.8871 52.1852C93.8687 52.7424 93.7707 53.1894 93.5931 53.3487C92.9869 53.8692 89.6555 53.018 89.6555 53.018C89.6555 53.018 88.9452 52.0872 89.3249 50.8808C89.3249 50.8808 89.4228 50.795 89.5943 50.6542C90.3904 51.0094 90.6905 51.6217 90.9599 52.1974C91.2171 52.7424 93.2869 53.0609 93.8871 52.1852Z" fill="#8F2429"/>
<path d="M90.0903 52.626C89.9556 53.6365 89.3187 54.0345 88.4063 54.1141C87.2428 54.2182 86.1956 54.0162 85.9507 52.2831C85.816 51.3401 85.8772 50.6787 86.1895 50.2623C86.4528 49.9071 86.8876 49.7234 87.5245 49.6805C88.7492 49.5948 89.8882 49.9255 90.0842 51.6646C90.1271 52.0321 90.1271 52.3505 90.0903 52.626Z" fill="#BA233E"/>
<path d="M90.0903 52.626C89.9556 53.6365 89.3187 54.0345 88.4063 54.1141C87.2428 54.2182 86.1956 54.0162 85.9507 52.2831C85.816 51.3401 85.8772 50.6787 86.1895 50.2623C86.2569 51.2482 86.5937 53.1405 88.1797 53.1588C89.2024 53.1649 89.7719 52.9016 90.0903 52.626Z" fill="#8F2429"/>
<path d="M86.3802 51.0919C86.3802 51.0919 83.1647 49.5855 82.3572 50.0672C81.5496 50.549 82.2083 54.2729 82.9343 54.6131C83.6604 54.9532 86.6399 53.2375 86.6399 53.2375C86.6399 53.2375 87.0733 52.1503 86.3802 51.0919Z" fill="#BA233E"/>
<path d="M102.825 85.3982C102.574 86.4581 101.797 87.5455 100.988 87.6515C99.6452 87.8321 91.5307 88.0991 91.5307 88.0991C91.5307 88.0991 92.5396 98.3414 90.506 101.321C88.4764 104.301 84.2091 104.301 83.8008 104.234C83.3965 104.167 81.9714 101.863 81.9714 101.863C81.9714 101.863 77.2997 103.421 74.5871 103.217C71.8783 103.013 66.3233 98.7457 66.3233 98.7457L68.3137 90.4702L69.7191 84.6169C69.99 84.6169 78.0339 82.8307 78.6581 82.7404C79.2823 82.6501 101.435 82.6501 102.507 83.6355C102.931 84.0241 102.99 84.7033 102.825 85.3982Z" fill="#CB8173"/>
<path d="M102.825 85.3981C102.574 86.4581 101.797 87.5455 100.988 87.6515C99.6452 87.8321 91.5307 88.0991 91.5307 88.0991C91.5307 88.0991 92.5396 98.3414 90.506 101.321C88.4764 104.301 84.2091 104.301 83.8008 104.234C83.3965 104.167 81.9714 101.863 81.9714 101.863C81.9714 101.863 77.2997 103.421 74.5871 103.217C71.8783 103.013 66.3233 98.7457 66.3233 98.7457L68.3137 90.4702C71.0578 90.6783 75.0856 90.9845 75.227 90.9845C75.4389 90.9845 79.6199 97.0066 82.6663 98.7065C85.7127 100.406 90.3883 86.093 90.3883 86.093L102.825 85.3981Z" fill="#BC6A5C"/>
<path d="M90.5068 98.2463C90.364 98.2463 90.2352 98.148 90.2022 98.0029L88.0347 88.4517C87.9964 88.2835 88.102 88.1161 88.2703 88.0778C88.4385 88.0385 88.606 88.1451 88.6442 88.3134L90.8118 97.8646C90.85 98.0328 90.7444 98.2003 90.5762 98.2385C90.553 98.2438 90.5296 98.2463 90.5068 98.2463Z" fill="#1A2D3C"/>
<path d="M88.4072 100.956C88.2756 100.956 88.1533 100.872 88.1102 100.74L85.8748 93.8987C85.8211 93.7348 85.9109 93.5582 86.0748 93.5047C86.238 93.4505 86.415 93.5405 86.4689 93.7046L88.7042 100.546C88.7577 100.71 88.6682 100.887 88.5042 100.94C88.4721 100.951 88.4393 100.956 88.4072 100.956Z" fill="#1A2D3C"/>
<path d="M70.944 82.654L69.7505 93.3321L68.6238 103.417C68.6238 103.417 47.8055 100.96 34.1006 97.2893C27.6859 95.5698 22.8258 93.5873 22.394 91.4634C22.2134 90.5762 22.5785 89.1355 23.3754 87.31C24.0938 85.6651 25.1656 83.7022 26.5043 81.5509C34.7719 68.2857 53.2387 47.7618 62.1267 48.7354C66.0132 49.1633 67.9093 51.6758 68.3726 55.1148C68.7809 58.0944 68.1174 61.7689 66.7552 65.3806C63.8226 73.1615 54.3026 80.75 54.3026 80.75L70.944 82.654Z" fill="#BA233E"/>
<path d="M30.866 99.592C32.9652 101.122 35.018 102.27 37.4921 103.104C39.5389 103.793 42.0668 104.573 44.2291 104.096C44.4725 104.042 44.5377 103.652 44.3016 103.542C42.425 102.662 40.1973 102.485 38.2112 101.88C35.8381 101.157 33.3899 100.182 31.1642 99.0818C30.8187 98.9111 30.5608 99.3696 30.866 99.592Z" fill="white"/>
<path d="M49.6375 104.588C50.3578 104.75 51.0778 104.914 51.7983 105.076C52.379 105.206 52.96 105.39 53.5494 105.254C53.7468 105.208 53.7474 104.953 53.6018 104.852C53.0951 104.501 52.4378 104.465 51.8403 104.369C51.1564 104.259 50.4723 104.15 49.7882 104.041C49.4362 103.985 49.2751 104.506 49.6375 104.588Z" fill="white"/>
<path d="M35.3168 65.7333C37.9979 62.5816 40.7769 59.5176 43.8547 56.7462C45.4348 55.3234 47.0745 53.9759 48.7739 52.6976C50.3581 51.506 52.1322 50.4726 53.5455 49.0773C53.7867 48.8392 53.5427 48.3906 53.2076 48.4968C49.4556 49.6855 45.9409 52.8654 43.0669 55.4708C39.8739 58.3654 37.0181 61.6204 34.6961 65.2543C34.4583 65.6265 35.023 66.0787 35.3168 65.7333Z" fill="white"/>
<path d="M26.9688 73.996C23.2288 78.8618 18.6186 85.0012 19.3192 91.5384C19.3834 92.1377 20.2355 92.1604 20.2693 91.5384C20.4602 88.0311 21.121 84.9759 22.7603 81.8312C24.1332 79.1976 25.9017 76.7906 27.6169 74.3747C27.9008 73.9748 27.256 73.6224 26.9688 73.996Z" fill="#DCB886"/>
<path d="M20.8099 95.2891C21.8713 96.2108 23.5984 97.5671 25.0983 97.4089C25.5559 97.3606 25.7066 96.8337 25.328 96.5608C24.7564 96.1488 23.9719 96.0137 23.3264 95.738C22.6194 95.436 21.942 95.0762 21.2985 94.6559C20.9195 94.4083 20.462 94.987 20.8099 95.2891Z" fill="#DCB886"/>
<path d="M29.7788 71.9783C30.2233 71.5998 30.6679 71.2213 31.1124 70.8428C31.6778 70.3613 30.8155 69.4751 30.2902 70.0205C29.8864 70.4398 29.4826 70.859 29.0787 71.2783C28.6308 71.7434 29.2987 72.3871 29.7788 71.9783Z" fill="#DCB886"/>
<path d="M56.8833 47.4929C57.7104 47.2774 58.5577 47.1442 59.4036 47.0236C60.1022 46.9241 60.9213 46.994 61.5067 46.5609C61.7616 46.3723 61.8002 46.0047 61.5067 45.8233C60.8096 45.3924 59.9113 45.6224 59.1492 45.7753C58.2348 45.9589 57.3936 46.3126 56.548 46.6976C56.0894 46.9063 56.4194 47.6137 56.8833 47.4929Z" fill="white"/>
<path d="M66.7551 65.3807C63.8226 73.1615 54.3026 80.75 54.3026 80.75C48.9243 80.856 40.5899 83.2586 40.3308 83.3332C40.8176 82.9681 63.0846 66.4406 68.3726 55.1148C68.7809 58.0944 68.1174 61.7689 66.7551 65.3807Z" fill="#8F2429"/>
<path d="M69.7505 93.3321L68.6238 103.417C68.6238 103.417 47.8055 100.96 34.1006 97.2893C27.6859 95.5698 22.8258 93.5873 22.394 91.4634C22.2134 90.5762 22.5785 89.1355 23.3754 87.31C32.1142 91.8992 59.8065 93.0612 69.7505 93.3321Z" fill="#8F2429"/>
<path d="M34.1006 97.2893C27.6859 95.5698 22.8258 93.5873 22.394 91.4635C22.2173 90.5919 22.5628 89.1865 23.3322 87.4081C23.3479 87.3767 23.3597 87.3414 23.3754 87.31C24.0938 85.6651 25.1656 83.7022 26.5043 81.5509C29.5389 82.2772 33.8651 84.3814 34.5953 90.4545C34.823 92.331 34.7052 94.5845 34.1006 97.2893Z" fill="#CE5D79"/>
<path d="M34.1006 97.2893C27.6859 95.5698 22.8258 93.5873 22.394 91.4635C22.2173 90.5919 22.5628 89.1865 23.3322 87.4081C23.3479 87.3767 23.3597 87.3414 23.3754 87.31C25.8604 88.6133 29.8843 89.6419 34.5953 90.4545C34.823 92.331 34.7052 94.5844 34.1006 97.2893Z" fill="#BA233E"/>
<path d="M29.5103 84.4413C29.4194 84.4413 29.3292 84.4019 29.2676 84.326C29.1587 84.1919 29.1791 83.9952 29.313 83.8863C29.3823 83.83 31.0197 82.5014 31.9177 81.9204C32.0628 81.827 32.2559 81.8679 32.3499 82.0131C32.4434 82.158 32.4021 82.3515 32.2571 82.4453C31.3873 83.008 29.7239 84.3577 29.7072 84.3713C29.6493 84.4183 29.5795 84.4413 29.5103 84.4413Z" fill="#1A2D3C"/>
<path d="M30.9831 85.2828C30.8795 85.2828 30.778 85.2313 30.7186 85.1371C30.6264 84.9912 30.6702 84.7982 30.816 84.706L32.8147 83.4438C32.9598 83.3525 33.1537 83.3952 33.2458 83.5413C33.338 83.6871 33.2943 83.8802 33.1484 83.9724L31.1497 85.2346C31.098 85.2671 31.0402 85.2828 30.9831 85.2828Z" fill="#1A2D3C"/>
<path d="M36.1902 95.2765C36.1633 95.2765 36.1363 95.273 36.1092 95.2659L33.1639 94.4769C32.997 94.4322 32.8982 94.2609 32.9427 94.0942C32.9877 93.9274 33.1596 93.8302 33.3254 93.8731L36.2708 94.6621C36.4376 94.7068 36.5365 94.8781 36.4919 95.0448C36.4545 95.1845 36.3281 95.2765 36.1902 95.2765Z" fill="#1A2D3C"/>
<path d="M51.6592 98.8821C52.8002 98.8821 53.7252 97.9571 53.7252 96.8161C53.7252 95.675 52.8002 94.75 51.6592 94.75C50.5182 94.75 49.5932 95.675 49.5932 96.8161C49.5932 97.9571 50.5182 98.8821 51.6592 98.8821Z" fill="#1A2D3C"/>
<path d="M60.1942 99.9659C61.3353 99.9659 62.2603 99.0409 62.2603 97.8999C62.2603 96.7588 61.3353 95.8339 60.1942 95.8339C59.0532 95.8339 58.1282 96.7588 58.1282 97.8999C58.1282 99.0409 59.0532 99.9659 60.1942 99.9659Z" fill="#1A2D3C"/>
<path d="M65.1733 100.888C65.1607 100.888 65.1481 100.887 65.1353 100.886C64.964 100.865 64.8419 100.709 64.8627 100.538L66.8949 83.8065C66.9159 83.6352 67.0705 83.5148 67.2428 83.5339C67.4141 83.5547 67.5362 83.7105 67.5155 83.8818L65.4832 100.613C65.4639 100.772 65.3292 100.888 65.1733 100.888Z" fill="#1A2D3C"/>
<path d="M41.8821 87.05C41.7894 87.05 41.6976 87.0089 41.6359 86.9303C41.5295 86.7944 41.5533 86.5981 41.689 86.4915C44.637 84.1801 47.6951 82.5867 49.5748 81.7163C42.9207 82.4825 36.1161 84.7605 36.0415 84.7858C35.8783 84.8405 35.7007 84.7532 35.6455 84.5896C35.5902 84.4263 35.6781 84.2489 35.8417 84.1937C35.9245 84.1656 44.2061 81.3922 51.4941 80.9135C51.6473 80.9043 51.7879 81.0083 51.8203 81.1603C51.8526 81.3121 51.7686 81.4646 51.6231 81.5186C51.5743 81.5365 46.6882 83.3661 42.0748 86.9834C42.0176 87.0282 41.9497 87.05 41.8821 87.05Z" fill="#1A2D3C"/>
<path d="M183.929 132.353L128.58 133.99C127.963 134.009 127.402 133.849 126.939 133.554L118.216 128.019C118.683 128.313 119.24 128.474 119.857 128.455L175.21 126.821L183.929 132.353Z" fill="#244951"/>
<path d="M197.332 41.9817L191.141 97.9239L189.939 108.759L187.745 128.584C187.517 130.61 185.813 132.298 183.929 132.353L175.21 126.821C177.09 126.763 178.798 125.074 179.022 123.049L181.558 100.146L182.017 95.9924L188.612 36.4502C188.762 35.088 188.204 33.922 187.254 33.3175L195.977 38.8489C196.927 39.4535 197.485 40.6233 197.332 41.9817Z" fill="#244951"/>
<path d="M188.612 36.4502L182.017 95.9923L181.558 100.146L179.022 123.049C178.798 125.074 177.09 126.763 175.21 126.821L119.857 128.455C117.98 128.513 116.637 126.912 116.861 124.886L126.452 38.2875C126.676 36.2618 128.379 34.5737 130.26 34.5148L185.609 32.8817C187.494 32.8228 188.836 34.4246 188.612 36.4502Z" fill="#426D77"/>
<path d="M191.141 97.9238L189.939 108.759C189.939 108.759 189.299 106.879 187.089 103.334C184.879 99.7886 184.687 100.248 182.092 100.189C181.903 100.185 181.723 100.169 181.558 100.146L182.017 95.9924C184.51 96.1651 188.86 96.648 191.141 97.9238Z" fill="#1A2D3C"/>
<path d="M182.017 95.9924L181.558 100.146C179.461 99.8632 179.293 98.1829 180.137 95.8942C180.137 95.8942 180.887 95.9099 182.017 95.9924Z" fill="#244951"/>
<path d="M137.494 62.4044C139.379 62.3715 140.707 63.9873 140.462 66.0124L139.589 73.2256C139.344 75.2507 137.618 76.9198 135.733 76.9527L127.902 77.0894C126.019 77.1222 124.691 75.5064 124.937 73.4813L125.81 66.2681C126.055 64.243 127.78 62.5739 129.663 62.5411L137.494 62.4044Z" fill="white"/>
<path d="M157.179 62.0608C159.061 62.0279 160.389 63.6437 160.144 65.6688L159.271 72.882C159.026 74.9071 157.3 76.5762 155.418 76.6091L147.584 76.7458C145.701 76.7787 144.374 75.1629 144.619 73.1378L145.492 65.9246C145.737 63.8995 147.462 62.2304 149.345 62.1975L157.179 62.0608Z" fill="white"/>
<path d="M176.861 61.7172C178.747 61.6843 180.074 63.3001 179.829 65.3252L178.956 72.5384C178.711 74.5635 176.985 76.2326 175.1 76.2655L167.269 76.4022C165.387 76.4351 164.059 74.8193 164.304 72.7942L165.177 65.5809C165.422 63.5558 167.148 61.8868 169.03 61.8539L176.861 61.7172Z" fill="white"/>
<path d="M134.792 84.728C136.677 84.6951 138.005 86.3109 137.759 88.3394L136.886 95.5492C136.641 97.5743 134.916 99.2434 133.031 99.2763L125.199 99.413C123.317 99.4459 121.989 97.8301 122.234 95.805L123.107 88.5952C123.353 86.5667 125.078 84.8976 126.96 84.8647L134.792 84.728Z" fill="white"/>
<path d="M154.477 84.3844C156.359 84.3516 157.687 85.9674 157.441 87.9959L156.569 95.2057C156.323 97.2308 154.598 98.8999 152.716 98.9327L144.881 99.0695C142.999 99.1023 141.671 97.4866 141.916 95.4614L142.789 88.2516C143.035 86.2231 144.76 84.554 146.642 84.5212L154.477 84.3844Z" fill="white"/>
<path d="M132.089 107.055C133.974 107.022 135.302 108.638 135.057 110.663L134.184 117.876C133.939 119.901 132.213 121.57 130.328 121.603L122.497 121.74C120.614 121.773 119.287 120.157 119.532 118.132L120.405 110.919C120.65 108.894 122.375 107.225 124.258 107.192L132.089 107.055Z" fill="white"/>
<path d="M151.774 106.711C153.656 106.679 154.984 108.294 154.739 110.32L153.866 117.533C153.621 119.558 151.895 121.227 150.013 121.26L142.179 121.397C140.296 121.429 138.969 119.814 139.214 117.788L140.087 110.575C140.332 108.55 142.057 106.881 143.94 106.848L151.774 106.711Z" fill="white"/>
<path d="M142.186 67.1302C142.351 65.7688 141.805 64.5925 140.856 63.9775L139.132 62.8597C140.081 63.4746 140.627 64.651 140.462 66.0123L139.589 73.2256C139.344 75.2507 137.618 76.9197 135.733 76.9527L127.902 77.0894C127.285 77.1001 126.728 76.9341 126.266 76.6347L127.991 77.7526C128.452 78.0519 129.009 78.218 129.626 78.2072L137.457 78.0705C139.342 78.0376 141.068 76.3685 141.313 74.3434L142.186 67.1302Z" fill="#1A2D3C"/>
<path d="M161.868 66.7867C162.033 65.4248 161.487 64.248 160.538 63.6333L158.814 62.5154C159.762 63.1302 160.309 64.3069 160.144 65.6688L159.271 72.882C159.026 74.9071 157.3 76.5762 155.418 76.6091L147.584 76.7458C146.967 76.7566 146.41 76.5905 145.948 76.2911L147.673 77.409C148.134 77.7084 148.691 77.8744 149.308 77.8637L157.142 77.7269C159.024 77.6941 160.75 76.025 160.995 73.9999L161.868 66.7867Z" fill="#1A2D3C"/>
<path d="M180.224 63.2904L178.5 62.1725C179.448 62.7874 179.994 63.9638 179.829 65.3252L178.956 72.5384C178.711 74.5635 176.985 76.2326 175.1 76.2655L167.269 76.4022C166.652 76.413 166.095 76.2469 165.634 75.9476L167.358 77.0654C167.82 77.3647 168.377 77.5308 168.993 77.5201L176.824 77.3834C178.71 77.3505 180.435 75.6814 180.68 73.6563L181.553 66.4431C181.718 65.0817 181.172 63.9053 180.224 63.2904Z" fill="#1A2D3C"/>
<path d="M138.154 86.3011L136.43 85.1832C137.378 85.7983 137.924 86.9756 137.759 88.3394L136.886 95.5492C136.641 97.5743 134.916 99.2434 133.031 99.2763L125.199 99.413C124.583 99.4238 124.026 99.2577 123.564 98.9584L125.288 100.076C125.75 100.376 126.307 100.542 126.923 100.531L134.755 100.394C136.64 100.361 138.366 98.6922 138.611 96.6671L139.483 89.4573C139.648 88.0934 139.102 86.9161 138.154 86.3011Z" fill="#1A2D3C"/>
<path d="M157.836 85.9568L156.111 84.8389C157.06 85.4538 157.606 86.6315 157.441 87.9959L156.569 95.2057C156.323 97.2308 154.598 98.8999 152.716 98.9327L144.881 99.0695C144.265 99.0802 143.708 98.9142 143.246 98.6148L144.97 99.7327C145.432 100.032 145.989 100.198 146.605 100.187L154.44 100.051C156.322 100.018 158.048 98.3486 158.293 96.3235L159.165 89.1137C159.331 87.7493 158.784 86.5716 157.836 85.9568Z" fill="#1A2D3C"/>
<path d="M135.452 108.628L133.727 107.51C134.676 108.125 135.222 109.302 135.057 110.663L134.184 117.876C133.939 119.901 132.213 121.57 130.328 121.603L122.497 121.74C121.88 121.751 121.323 121.585 120.861 121.285L122.586 122.403C123.047 122.703 123.604 122.869 124.221 122.858L132.052 122.721C133.937 122.688 135.663 121.019 135.908 118.994L136.781 111.781C136.946 110.42 136.4 109.243 135.452 108.628Z" fill="#1A2D3C"/>
<path d="M155.133 108.284L153.409 107.166C154.357 107.781 154.904 108.958 154.739 110.32L153.866 117.533C153.621 119.558 151.895 121.227 150.013 121.26L142.179 121.396C141.562 121.407 141.005 121.241 140.543 120.942L142.268 122.06C142.729 122.359 143.286 122.525 143.903 122.514L151.737 122.378C153.619 122.345 155.345 120.676 155.59 118.651L156.463 111.437C156.628 110.075 156.082 108.899 155.133 108.284Z" fill="#1A2D3C"/>
<path d="M177.521 85.6139L175.797 84.496C176.745 85.1111 177.292 86.2884 177.127 87.6523L173.551 117.189C173.306 119.214 171.58 120.883 169.695 120.916L161.864 121.053C161.247 121.064 160.69 120.898 160.229 120.598L161.953 121.716C162.415 122.015 162.972 122.181 163.588 122.171L171.419 122.034C173.305 122.001 175.03 120.332 175.275 118.307L178.851 88.7701C179.016 87.4062 178.47 86.2289 177.521 85.6139Z" fill="#1A2D3C"/>
<path d="M174.159 84.0409C176.044 84.008 177.372 85.6237 177.126 87.6522L173.551 117.189C173.306 119.214 171.58 120.883 169.695 120.916L161.864 121.053C159.982 121.086 158.654 119.47 158.899 117.445L162.474 87.908C162.72 85.8795 164.445 84.2104 166.328 84.1776L174.159 84.0409Z" fill="white"/>
<path d="M182.53 42.9985L181.659 50.2101C181.412 52.2359 179.688 53.9043 177.804 53.9396L130.604 54.764C130.337 54.768 130.078 54.7405 129.835 54.6816C128.375 54.3243 127.428 52.8875 127.64 51.1523L128.512 43.9407C128.759 41.915 130.483 40.2465 132.367 40.2151L179.563 39.3907C180.583 39.3711 181.439 39.8343 181.973 40.5881C182.425 41.2241 182.644 42.0681 182.53 42.9985Z" fill="#1A2D3C"/>
<path d="M181.973 40.5881C181.73 40.5253 181.471 40.4978 181.2 40.5017L134 41.3261C132.12 41.3575 130.392 43.0299 130.149 45.0517L129.274 52.2672C129.16 53.1976 129.383 54.0456 129.835 54.6816C128.375 54.3243 127.428 52.8875 127.64 51.1523L128.512 43.9407C128.759 41.915 130.483 40.2465 132.367 40.2151L179.563 39.3907C180.583 39.3711 181.439 39.8343 181.973 40.5881Z" fill="#244951"/>
<path d="M196.794 97.6294C196.362 100.601 195.907 103.22 195.702 103.887C195.208 105.512 189.971 108.476 189.971 108.476L190.509 103.616L186.756 97.8571C186.756 97.8571 185.601 97.9395 183.697 98.1476C181.793 98.3517 179.355 97.7629 179.061 96.118C178.994 95.745 179.03 94.6694 179.124 93.2286C179.442 88.3057 180.451 79.1037 180.451 79.1037C180.781 78.3068 188.181 76.6776 189.535 77.3253C190.889 77.9731 197.394 85.6911 197.779 87.3871C198.007 88.3881 197.418 93.3699 196.794 97.6294Z" fill="#CB8173"/>
<path d="M196.794 97.6294C196.362 100.601 195.907 103.22 195.702 103.887C195.208 105.512 189.971 108.476 189.971 108.476L190.509 103.616L186.756 97.8571C186.756 97.8571 185.601 97.9396 183.697 98.1476C181.793 98.3518 179.355 97.7629 179.061 96.118C178.994 95.745 179.03 94.6694 179.124 93.2286C181 94.6262 186.229 93.9274 187.745 94.0334C189.57 94.163 191.918 99.2036 193.743 100.531C194.933 101.398 195.997 100.177 196.794 97.6294Z" fill="#BC6A5C"/>
<path d="M194.012 89.1245C193.918 89.1245 193.826 89.0826 193.764 89.0029C191.786 86.4394 189.513 83.6778 189.019 83.3474C188.401 83.4379 184.989 84.0965 183.666 84.3544C183.496 84.3868 183.333 84.2767 183.3 84.1074C183.267 83.938 183.377 83.774 183.547 83.7408C183.751 83.7012 188.556 82.7645 189.023 82.7169C189.21 82.6975 189.655 82.6528 194.259 88.6212C194.364 88.7577 194.339 88.954 194.202 89.0594C194.145 89.1034 194.078 89.1245 194.012 89.1245Z" fill="#1A2D3C"/>
<path d="M192.57 95.3255C192.469 95.3255 192.371 95.2777 192.311 95.1886C190.83 93.0098 189.093 90.6441 188.703 90.3874C188.29 90.3461 185.645 90.6095 183.309 90.8834C183.14 90.9013 182.983 90.7808 182.962 90.6093C182.942 90.4378 183.065 90.2826 183.236 90.2624C184.082 90.1634 188.33 89.671 188.85 89.7776C189.263 89.8598 190.601 91.5623 192.828 94.8374C192.925 94.9801 192.888 95.1744 192.745 95.2714C192.691 95.308 192.63 95.3255 192.57 95.3255Z" fill="#1A2D3C"/>
<path d="M195.486 81.6892C197.638 83.456 199.21 85.8157 199.824 88.5507C200.534 91.7128 199.459 94.1571 198.799 97.1597C198.709 97.566 199.205 97.9005 199.519 97.5792C201.678 95.3683 201.894 91.3617 201.21 88.4981C200.473 85.4125 198.525 82.8795 195.931 81.1124C195.591 80.8804 195.162 81.4233 195.486 81.6892Z" fill="white"/>
<path d="M198.606 99.6197C198.174 101.262 197.251 102.991 197.245 104.702C197.243 105.037 197.689 105.243 197.926 104.984C199.136 103.664 199.367 101.61 199.653 99.9084C199.766 99.2334 198.787 98.9303 198.606 99.6197Z" fill="white"/>
<path d="M195.8 107.754C194.761 108.317 193.702 108.837 192.643 109.359C191.689 109.829 190.598 110.203 189.801 110.912C189.329 111.332 189.843 111.982 190.368 111.886C191.408 111.696 192.389 111.001 193.289 110.464C194.303 109.86 195.277 109.192 196.251 108.526C196.722 108.203 196.312 107.476 195.8 107.754Z" fill="white"/>
<path d="M145.29 137.449C150.655 137.91 156.069 137.919 161.451 137.957C166.5 137.993 171.948 138.468 176.94 137.663C177.646 137.549 177.375 136.589 176.785 136.518C174.2 136.205 171.513 136.447 168.911 136.47C166.286 136.492 163.661 136.494 161.036 136.491C155.79 136.485 150.534 136.306 145.29 136.451C144.639 136.469 144.657 137.395 145.29 137.449Z" fill="white"/>
<path d="M199.692 70.9503C197.94 70.9503 196.515 69.5249 196.515 67.773C196.515 66.0209 197.94 64.5955 199.692 64.5955C201.444 64.5955 202.869 66.0209 202.869 67.773C202.869 69.5249 201.444 70.9503 199.692 70.9503ZM199.692 65.4289C198.4 65.4289 197.348 66.4805 197.348 67.773C197.348 69.0655 198.4 70.117 199.692 70.117C200.985 70.117 202.036 69.0655 202.036 67.773C202.036 66.4805 200.985 65.4289 199.692 65.4289Z" fill="white"/>
<path d="M60.1943 170.204C59.3903 170.204 58.7362 169.55 58.7362 168.746C58.7362 167.942 59.3903 167.288 60.1943 167.288C60.9981 167.288 61.6522 167.942 61.6522 168.746C61.6522 169.55 60.9981 170.204 60.1943 170.204ZM60.1943 168.122C59.8499 168.122 59.5695 168.402 59.5695 168.746C59.5695 169.091 59.8499 169.371 60.1943 169.371C60.5387 169.371 60.8189 169.091 60.8189 168.746C60.8189 168.402 60.5387 168.122 60.1943 168.122Z" fill="white"/>
<path d="M169.366 186.804C167.964 186.804 166.823 185.663 166.823 184.261C166.823 182.858 167.964 181.717 169.366 181.717C170.768 181.717 171.909 182.858 171.909 184.261C171.909 185.663 170.768 186.804 169.366 186.804ZM169.366 182.551C168.423 182.551 167.656 183.318 167.656 184.261C167.656 185.203 168.423 185.97 169.366 185.97C170.309 185.97 171.076 185.203 171.076 184.261C171.076 183.318 170.309 182.551 169.366 182.551Z" fill="white"/>
<path d="M136.81 29.7929C135.824 29.7929 135.022 28.9907 135.022 28.0047C135.022 27.0188 135.824 26.2166 136.81 26.2166C137.796 26.2166 138.598 27.0188 138.598 28.0047C138.598 28.9907 137.796 29.7929 136.81 29.7929ZM136.81 27.0499C136.284 27.0499 135.855 27.4782 135.855 28.0047C135.855 28.5313 136.284 28.9595 136.81 28.9595C137.337 28.9595 137.765 28.5313 137.765 28.0047C137.765 27.4782 137.337 27.0499 136.81 27.0499Z" fill="white"/>
<path d="M68.492 41.0437C67.0192 41.0437 65.8211 39.8456 65.8211 38.373C65.8211 36.9002 67.0192 35.7021 68.492 35.7021C69.9646 35.7021 71.1627 36.9002 71.1627 38.373C71.1627 39.8456 69.9646 41.0437 68.492 41.0437ZM68.492 36.5354C67.4788 36.5354 66.6545 37.3598 66.6545 38.373C66.6545 39.3862 67.4788 40.2104 68.492 40.2104C69.5052 40.2104 70.3294 39.3862 70.3294 38.373C70.3294 37.3598 69.5052 36.5354 68.492 36.5354Z" fill="white"/>
<path d="M110.613 45.5641C109.976 45.5641 109.457 45.0453 109.457 44.4077C109.457 43.7701 109.976 43.2513 110.613 43.2513C111.251 43.2513 111.77 43.7701 111.77 44.4077C111.77 45.0453 111.251 45.5641 110.613 45.5641ZM110.613 44.0847C110.435 44.0847 110.29 44.2295 110.29 44.4077C110.29 44.586 110.435 44.7308 110.613 44.7308C110.791 44.7308 110.936 44.586 110.936 44.4077C110.936 44.2295 110.791 44.0847 110.613 44.0847Z" fill="white"/>
<path d="M47.0959 135.572C46.3116 135.572 45.6734 134.933 45.6734 134.149C45.6734 133.365 46.3116 132.727 47.0959 132.727C47.8802 132.727 48.5185 133.365 48.5185 134.149C48.5185 134.933 47.8802 135.572 47.0959 135.572ZM47.0959 133.56C46.771 133.56 46.5068 133.824 46.5068 134.149C46.5068 134.474 46.771 134.738 47.0959 134.738C47.4209 134.738 47.6851 134.474 47.6851 134.149C47.6851 133.824 47.4209 133.56 47.0959 133.56Z" fill="white"/>
<path d="M111.428 202.068C110 202.068 108.838 200.906 108.838 199.478C108.838 198.05 110 196.888 111.428 196.888C112.855 196.888 114.017 198.05 114.017 199.478C114.017 200.906 112.855 202.068 111.428 202.068ZM111.428 197.722C110.459 197.722 109.671 198.51 109.671 199.478C109.671 200.446 110.459 201.234 111.428 201.234C112.396 201.234 113.184 200.446 113.184 199.478C113.184 198.51 112.396 197.722 111.428 197.722Z" fill="white"/>
<path d="M107.768 165.498C106.8 165.498 106.012 164.711 106.012 163.743C106.012 162.775 106.8 161.988 107.768 161.988C108.736 161.988 109.523 162.775 109.523 163.743C109.523 164.711 108.736 165.498 107.768 165.498ZM107.768 162.821C107.259 162.821 106.846 163.235 106.846 163.743C106.846 164.251 107.259 164.665 107.768 164.665C108.276 164.665 108.69 164.251 108.69 163.743C108.69 163.235 108.276 162.821 107.768 162.821Z" fill="white"/>
<path d="M164.308 148.571C163.353 148.571 162.576 147.795 162.576 146.84C162.576 145.885 163.353 145.109 164.308 145.109C165.262 145.109 166.039 145.885 166.039 146.84C166.039 147.795 165.262 148.571 164.308 148.571ZM164.308 145.942C163.813 145.942 163.41 146.345 163.41 146.84C163.41 147.335 163.813 147.738 164.308 147.738C164.803 147.738 165.206 147.335 165.206 146.84C165.206 146.345 164.803 145.942 164.308 145.942Z" fill="white"/>
</svg>
