<svg width="322" height="447" viewBox="0 0 322 447" fill="none" xmlns="http://www.w3.org/2000/svg">
<rect x="20" y="20" width="302" height="427" rx="30" fill="url(#paint0_linear_128_22)"/>
<rect x="3" y="3" width="296" height="421" rx="27" fill="url(#paint1_linear_128_22)" stroke="url(#paint2_linear_128_22)" stroke-width="6"/>
<rect x="33.5" y="41.5" width="235" height="91" rx="7.5" fill="url(#paint3_linear_128_22)" stroke="url(#paint4_linear_128_22)" stroke-width="5"/>
<circle cx="151" cy="274" r="86" fill="#FFA943" stroke="#FFCD40" stroke-width="10"/>
<path d="M154.76 266.864L155.848 267.272C159.293 268.451 162.512 269.811 165.504 271.352C168.496 272.803 171.08 274.571 173.256 276.656C175.523 278.741 177.245 281.235 178.424 284.136C179.693 287.037 180.328 290.483 180.328 294.472C180.328 298.28 179.648 301.68 178.288 304.672C177.019 307.664 175.205 310.248 172.848 312.424C170.581 314.509 167.861 316.187 164.688 317.456C161.605 318.725 158.251 319.496 154.624 319.768V330.24C154.624 332.507 153.536 333.64 151.36 333.64C149.184 333.64 148.096 332.507 148.096 330.24V320.04C144.288 319.949 140.797 319.405 137.624 318.408C134.451 317.411 131.731 316.096 129.464 314.464C127.197 312.741 125.429 310.701 124.16 308.344C122.981 305.987 122.392 303.357 122.392 300.456C122.392 298.461 123.208 297.147 124.84 296.512C126.563 295.787 128.195 295.424 129.736 295.424C131.64 295.424 133.317 296.059 134.768 297.328C136.309 298.597 137.352 300.955 137.896 304.4L138.712 309.432C138.984 311.427 140.072 312.56 141.976 312.832C142.973 313.013 143.971 313.149 144.968 313.24C145.965 313.24 147.008 313.285 148.096 313.376V280.736L146.192 280.056C142.928 278.877 139.891 277.563 137.08 276.112C134.269 274.571 131.821 272.757 129.736 270.672C127.741 268.587 126.155 266.139 124.976 263.328C123.797 260.517 123.208 257.208 123.208 253.4C123.208 249.864 123.888 246.645 125.248 243.744C126.608 240.843 128.421 238.349 130.688 236.264C133.045 234.179 135.72 232.501 138.712 231.232C141.704 229.963 144.877 229.192 148.232 228.92V220.08C148.232 217.813 149.32 216.68 151.496 216.68C153.672 216.68 154.76 217.813 154.76 220.08V228.92C161.56 229.373 167.045 231.277 171.216 234.632C175.477 237.987 177.608 242.52 177.608 248.232C177.608 250.227 176.792 251.587 175.16 252.312C173.619 253.037 172.123 253.4 170.672 253.4C168.949 253.4 167.227 252.765 165.504 251.496C163.872 250.227 162.739 247.597 162.104 243.608L161.56 239.256C161.288 237.261 160.155 236.128 158.16 235.856C157.616 235.675 157.027 235.584 156.392 235.584C155.848 235.584 155.304 235.539 154.76 235.448V266.864ZM154.624 283.184V312.968C158.432 312.243 161.424 310.611 163.6 308.072C165.776 305.533 166.864 302.315 166.864 298.416C166.864 294.336 165.912 291.208 164.008 289.032C162.104 286.856 158.976 284.907 154.624 283.184ZM148.232 264.688V235.856C144.787 236.491 141.931 237.987 139.664 240.344C137.397 242.611 136.264 245.829 136.264 250C136.264 253.808 137.307 256.845 139.392 259.112C141.477 261.288 144.424 263.147 148.232 264.688Z" fill="#FFCD40"/>
<path d="M60 274C60 223.742 100.742 183 151 183C151 183 151 223.742 151 274C151 324.258 151 365 151 365C100.742 365 60 324.258 60 274Z" fill="white" fill-opacity="0.35"/>
<defs>
<linearGradient id="paint0_linear_128_22" x1="371.963" y1="350.5" x2="142.253" y2="-67.9014" gradientUnits="userSpaceOnUse">
<stop offset="1" stop-opacity="0.3"/>
</linearGradient>
<linearGradient id="paint1_linear_128_22" x1="351.963" y1="330.5" x2="122.253" y2="-87.9014" gradientUnits="userSpaceOnUse">
<stop stop-color="#426D77"/>
<stop offset="1" stop-color="#76B5C2"/>
</linearGradient>
<linearGradient id="paint2_linear_128_22" x1="279.794" y1="357.5" x2="76.3366" y2="-28.1022" gradientUnits="userSpaceOnUse">
<stop stop-color="#5D96A3"/>
<stop offset="1" stop-color="#C0E5ED"/>
</linearGradient>
<linearGradient id="paint3_linear_128_22" x1="121.138" y1="58.443" x2="181.26" y2="184.944" gradientUnits="userSpaceOnUse">
<stop stop-color="#EAF4FA"/>
<stop offset="1" stop-color="#88A7B9"/>
</linearGradient>
<linearGradient id="paint4_linear_128_22" x1="99.5714" y1="183" x2="29.3227" y2="15.4639" gradientUnits="userSpaceOnUse">
<stop stop-color="#A4A4A4"/>
<stop offset="1" stop-color="#F8F8F8"/>
</linearGradient>
</defs>
</svg>
