<svg width="312" height="312" viewBox="0 0 312 312" fill="none" xmlns="http://www.w3.org/2000/svg">
<path d="M268.93 269.821C268.93 269.821 275.482 267.793 284.443 266.288C293.404 264.783 300.273 259.138 300.934 252.993C301.596 246.849 294.532 242.604 284.308 248.852C274.404 254.905 268.93 269.821 268.93 269.821Z" fill="#76B2BF"/>
<path d="M270.689 268.054C277.144 261.704 285.706 254.722 295.54 250.27" stroke="#234850" stroke-width="1.09644" stroke-miterlimit="10" stroke-linecap="round" stroke-linejoin="round"/>
<path d="M274.309 250.451C267.061 257.82 256.676 265.427 253.702 269.728C253.702 269.728 251.934 263.269 253.244 254.195C253.92 249.557 255.397 244.232 258.335 238.741C258.637 238.174 258.944 237.633 259.25 237.108C267.695 222.647 277.003 224.581 280.3 228.918C283.716 233.416 281.553 243.088 274.309 250.451Z" fill="#234850"/>
<path d="M259.25 237.108L258.855 249.422L253.244 254.195C253.92 249.557 255.397 244.232 258.335 238.741C258.637 238.174 258.944 237.633 259.25 237.108Z" fill="#234850"/>
<path d="M274.943 231.982C274.943 231.982 262.892 240.202 254.669 265.157" stroke="#76B2BF" stroke-width="1.04332" stroke-miterlimit="10" stroke-linecap="round" stroke-linejoin="round"/>
<path d="M43.0704 269.821C43.0704 269.821 36.5185 267.793 27.5572 266.288C18.596 264.783 11.7272 259.138 11.0656 252.993C10.404 246.849 17.4679 242.604 27.6917 248.852C37.5962 254.905 43.0704 269.821 43.0704 269.821Z" fill="#76B2BF"/>
<path d="M41.3113 268.054C34.8564 261.704 26.2945 254.722 16.4596 250.27" stroke="#234850" stroke-width="1.05091" stroke-miterlimit="10" stroke-linecap="round" stroke-linejoin="round"/>
<path d="M58.9759 269.728C58.9759 269.728 63.0179 254.967 54.341 238.74C45.6642 222.513 35.7928 224.424 32.3775 228.919C28.9621 233.415 31.1227 243.087 38.369 250.452C45.6154 257.818 56.0036 265.426 58.9759 269.728Z" fill="#234850"/>
<path d="M37.7343 231.982C37.7343 231.982 49.7852 240.202 58.0091 265.157" stroke="#76B2BF" stroke-miterlimit="10" stroke-linecap="round" stroke-linejoin="round"/>
<path d="M106.519 269.823C106.519 269.823 110.765 267.903 116.68 266.132C122.595 264.362 126.75 259.976 126.678 255.778C126.606 251.579 121.485 249.313 115.119 254.388C108.952 259.305 106.519 269.823 106.519 269.823Z" fill="#234850"/>
<path d="M232.579 63.5369C232.579 63.5369 231.335 74.0831 223.923 77.2146C223.923 77.2146 225.613 85.2939 236.315 85.3039C247.016 85.314 250.263 79.4003 250.263 79.4003C250.263 79.4003 244.504 75.8962 245.799 67.3052C247.093 58.7142 234.18 57.1072 232.579 63.5369Z" fill="#061B20"/>
<path d="M188.784 44.5572L187.937 43.8015C187.373 43.2989 186.953 42.6556 186.72 41.9374L183.707 32.6668C183.587 32.2987 183.769 31.9004 184.126 31.7496C184.5 31.5915 184.931 31.7616 185.097 32.1323L186.76 35.8578L185.536 30.716C185.445 30.3319 185.676 29.945 186.058 29.8436H186.058C186.416 29.7484 186.789 29.9376 186.923 30.2829L188.768 35.016L188.078 29.4917C188.023 29.0454 188.35 28.6427 188.798 28.6061C189.175 28.5754 189.521 28.816 189.623 29.18L191.13 34.5412L190.543 29.6724C190.498 29.2956 190.76 28.9508 191.136 28.8942C191.499 28.8394 191.843 29.0743 191.925 29.4328L193.857 37.931L194.37 35.2334C194.465 34.7313 194.957 34.4073 195.456 34.5175V34.5175C195.874 34.6099 196.171 34.9826 196.167 35.4111L196.126 39.7236C196.117 40.7422 195.73 41.721 195.041 42.4709L193.943 43.665L195.156 47.0711L190.283 48.5875L188.784 44.5572Z" fill="#EBD2D1"/>
<path d="M193.66 38.4428C193.66 38.4428 190.77 39.2375 190.937 42.7192" stroke="#A38C8B" stroke-width="1.05091" stroke-miterlimit="10" stroke-linecap="round" stroke-linejoin="round"/>
<path d="M186.719 37.1234C186.719 37.1234 189.37 35.792 191.868 35.2558" stroke="#A38C8B" stroke-width="1.05091" stroke-miterlimit="10" stroke-linecap="round" stroke-linejoin="round"/>
<path d="M188.202 47.7587L195.653 45.6542L208.715 73.3144L226.438 82.3145C226.438 82.3145 232.652 85.416 229.285 92.0455C225.917 98.675 219.175 95.1181 219.175 95.1181L202.047 83.5795C200.013 82.2093 198.502 80.1917 197.76 77.8543L188.202 47.7587Z" fill="#A02C2C"/>
<path d="M213.175 244.703L212.982 254.211L217.21 253.315L217.992 244.103L213.175 244.703Z" fill="#EBD2D1"/>
<path d="M218.798 249.855V268.77H203.809C203.526 266.715 203.544 264.798 204.19 263.181C204.19 263.181 204.698 262.667 205.472 261.668C207.025 259.659 209.641 255.664 211.286 249.855H218.798Z" fill="#A02C2C"/>
<path d="M218.798 265.202V268.77H203.809C203.526 266.715 203.544 264.798 204.19 263.181C204.19 263.181 204.566 262.454 205.472 261.668C206.523 260.762 208.29 259.78 211.015 259.78C216.09 259.78 216.777 265.202 216.777 265.202H218.798Z" fill="#671515"/>
<path d="M216.777 251.688C216.777 251.688 215.954 256.627 214.102 259.165" stroke="#ECBDBB" stroke-width="1.09644" stroke-miterlimit="10" stroke-linecap="round" stroke-linejoin="round"/>
<path d="M212.455 251.688C212.455 251.688 211.632 256.627 209.78 259.165" stroke="#ECBDBB" stroke-width="1.09644" stroke-miterlimit="10" stroke-linecap="round" stroke-linejoin="round"/>
<path d="M232.268 145.773L228.799 172.868L219.474 245.733L210.138 245.894L206.664 144.035C206.547 140.604 207.394 137.21 209.109 134.236L210.757 131.379C213.158 127.217 217.959 125.066 222.663 126.045H222.663C227.496 127.052 231.088 131.123 231.484 136.044L232.268 145.773Z" fill="#404B7C"/>
<path d="M232.268 145.773L228.799 172.868L224.005 155.424L220.542 142.214L232.268 145.773Z" fill="#404B7C"/>
<path d="M223.405 153.206L225.777 161.967C226.121 163.236 227.165 164.194 228.459 164.427L229.847 164.677" stroke="#D4E6FC" stroke-width="1.04332" stroke-miterlimit="10" stroke-linecap="round" stroke-linejoin="round"/>
<path d="M224.833 168.097L217.823 242.768" stroke="#9AB3DA" stroke-width="1.04332" stroke-miterlimit="10" stroke-linecap="round" stroke-linejoin="round"/>
<path d="M215.136 208.716C217.385 208.59 219.05 205.63 218.854 202.103C218.657 198.576 216.674 195.819 214.424 195.944C212.175 196.069 210.51 199.03 210.706 202.557C210.903 206.084 212.886 208.841 215.136 208.716Z" stroke="#D4E6FC" stroke-width="1.04332" stroke-miterlimit="10" stroke-linecap="round" stroke-linejoin="round"/>
<path d="M211.222 243.581L219.084 243.495" stroke="#9AB3DA" stroke-width="1.04332" stroke-miterlimit="10" stroke-linecap="round" stroke-linejoin="round"/>
<path d="M254.552 244.765L255.653 254.211L251.359 253.723L249.7 244.628L254.552 244.765Z" fill="#EBD2D1"/>
<path d="M249.837 249.855V268.77H264.826C265.109 266.715 265.092 264.798 264.445 263.181C264.445 263.181 263.937 262.667 263.163 261.668C261.61 259.659 258.995 255.664 257.349 249.855H249.837Z" fill="#A02C2C"/>
<path d="M249.837 265.202V268.77H264.826C265.109 266.715 265.092 264.798 264.445 263.181C264.445 263.181 264.07 262.454 263.163 261.668C262.113 260.762 260.346 259.78 257.621 259.78C252.545 259.78 251.858 265.202 251.858 265.202H249.837Z" fill="#671515"/>
<path d="M251.858 251.688C251.858 251.688 252.682 256.627 254.534 259.165" stroke="#ECBDBB" stroke-width="1.09644" stroke-miterlimit="10" stroke-linecap="round" stroke-linejoin="round"/>
<path d="M256.18 251.688C256.18 251.688 257.003 256.627 258.856 259.165" stroke="#ECBDBB" stroke-width="1.09644" stroke-miterlimit="10" stroke-linecap="round" stroke-linejoin="round"/>
<path d="M225.247 144.396L232.133 174.753L248.381 246.392L257.689 245.66L250.478 142.16L247.367 135.466C245.163 130.723 239.975 128.131 234.858 129.217H234.858C230.252 130.194 226.745 133.943 226.077 138.604L225.247 144.396Z" fill="#404B7C"/>
<path d="M235.625 169.624L249.741 243.283" stroke="#9AB3DA" stroke-width="1.04332" stroke-miterlimit="10" stroke-linecap="round" stroke-linejoin="round"/>
<path d="M249.161 209.13C251.412 209.04 253.122 206.105 252.981 202.576C252.839 199.046 250.899 196.258 248.648 196.348C246.396 196.439 244.686 199.373 244.828 202.903C244.969 206.432 246.909 209.22 249.161 209.13Z" stroke="#D4E6FC" stroke-width="1.04332" stroke-miterlimit="10" stroke-linecap="round" stroke-linejoin="round"/>
<path d="M256.389 243.462L248.555 244.127" stroke="#9AB3DA" stroke-width="1.04332" stroke-miterlimit="10" stroke-linecap="round" stroke-linejoin="round"/>
<path d="M233.642 82.1115C226.336 82.3105 221.964 80.3941 221.964 80.3941C221.964 80.3941 213.206 98.5812 213.513 100.845C213.82 103.109 215.811 113.582 215.811 113.582L204.673 140.429C204.673 140.429 212.281 147.536 224.628 147.754C236.976 147.971 253.446 141.71 253.446 141.71C253.446 141.71 245.03 118.652 244.93 116.079C244.829 113.507 251.325 99.9299 251.639 94.1678C251.953 88.4057 233.642 82.1115 233.642 82.1115Z" fill="#A02C2C"/>
<path d="M221.452 81.4671C220.523 83.424 218.49 87.7489 216.713 91.8403" stroke="#ECBDBB" stroke-width="0.852492" stroke-miterlimit="10" stroke-linecap="round" stroke-linejoin="round"/>
<path d="M208.173 138.786C208.173 138.786 215.68 143.218 224.117 143.946C232.555 144.674 250.259 138.928 250.259 138.928" stroke="#ECBDBB" stroke-width="1.09644" stroke-miterlimit="10" stroke-linecap="round" stroke-linejoin="round"/>
<path d="M234.775 81.3923C228.38 80.1358 226.676 85.7751 226.673 89.2051C226.673 89.2051 228.938 87.9724 232.917 87.7704C232.917 87.7704 235.042 88.8014 237.166 91.8904C237.166 91.8904 243.897 83.1844 234.775 81.3923Z" fill="#0C262C"/>
<path d="M238.761 73.7156L238.453 75.9555L237.308 84.2053L233.328 86.4014L231.413 83.8591L232.827 78.7044L233.615 75.8355L238.761 73.7156Z" fill="#EBD2D1"/>
<path d="M238.761 73.7156L238.453 75.9555C236.517 78.2171 233.947 78.6361 232.827 78.7044L233.615 75.8355L238.761 73.7156Z" fill="#A38C8B"/>
<path d="M230.92 63.4196C230.92 63.4196 228.748 67.471 228.955 72.543C229.161 77.6151 233.215 77.8956 237.162 75.9133C241.108 73.9311 243.238 67.9492 243.238 67.9492C243.238 67.9492 244.75 62.8063 241.209 60.727C237.668 58.6477 233.147 59.5748 230.92 63.4196Z" fill="#EBD2D1"/>
<path d="M240.811 62.3503C240.811 62.3503 235.692 66.9732 228.812 64.6087C226.101 59.1061 234.474 51.3922 241.305 58.9974C251.206 61.5993 247.544 71.7316 241.918 70.8938C241.918 70.8938 239.393 68.2855 240.811 62.3503Z" fill="#061B20"/>
<path d="M239.296 73.2094L241.09 70.2336C241.09 70.2336 243.058 68.1991 245.119 69.2967C247.181 70.3944 245.453 76.0838 239.296 73.2094Z" fill="#EBD2D1"/>
<path d="M244.587 70.5716C244.587 70.5716 242.291 70.4911 240.525 72.078" stroke="#A38C8B" stroke-width="1.04016" stroke-miterlimit="10" stroke-linecap="round" stroke-linejoin="round"/>
<path d="M242.984 72.7257C242.984 72.7257 243.125 71.8355 242.9 70.8092" stroke="#A38C8B" stroke-width="1.04016" stroke-miterlimit="10" stroke-linecap="round" stroke-linejoin="round"/>
<path d="M241.196 72.9166C240.295 72.9758 239.645 74.2604 239.745 75.7858C239.845 77.3113 240.657 78.5 241.559 78.4408C242.46 78.3817 243.11 77.0971 243.009 75.5716C242.971 74.983 242.826 74.4445 242.611 74.0085" stroke="#DACA40" stroke-width="1.04016" stroke-miterlimit="10" stroke-linecap="round" stroke-linejoin="round"/>
<path d="M239.032 66.5427C239.032 66.5427 238.568 64.34 236.893 64.7048C236.893 64.7048 236.967 64.2505 236.582 64.141C236.196 64.0315 235.845 65.2354 235.845 65.2354C235.845 65.2354 237.664 65.5461 239.032 66.5427Z" fill="#061B20"/>
<path d="M230.456 65.3312C230.456 65.3312 231.087 63.3715 232.094 64.2188C232.094 64.2188 232.218 63.8589 232.478 63.8815C232.928 63.9206 232.722 65.0864 232.722 65.0864C232.722 65.0864 231.477 64.7903 230.456 65.3312Z" fill="#061B20"/>
<path d="M237.342 69.2767C237.468 68.7135 237.201 68.1743 236.745 68.0723C236.29 67.9704 235.819 68.3443 235.692 68.9075C235.566 69.4707 235.833 70.0099 236.289 70.1118C236.745 70.2138 237.216 69.8399 237.342 69.2767Z" fill="#1C2443"/>
<path d="M236.416 68.9144C236.541 68.9144 236.641 68.8137 236.641 68.6896C236.641 68.5655 236.541 68.4649 236.416 68.4649C236.292 68.4649 236.192 68.5655 236.192 68.6896C236.192 68.8137 236.292 68.9144 236.416 68.9144Z" fill="white"/>
<path d="M232.483 68.1892C232.609 67.626 232.342 67.0868 231.887 66.9849C231.431 66.8829 230.96 67.2568 230.834 67.82C230.708 68.3832 230.975 68.9224 231.43 69.0243C231.886 69.1263 232.357 68.7524 232.483 68.1892Z" fill="#1C2443"/>
<path d="M231.558 67.8269C231.682 67.8269 231.782 67.7263 231.782 67.6021C231.782 67.478 231.682 67.3774 231.558 67.3774C231.434 67.3774 231.333 67.478 231.333 67.6021C231.333 67.7263 231.434 67.8269 231.558 67.8269Z" fill="white"/>
<path d="M233.853 68.2729L233.392 70.264C233.392 70.264 231.962 69.9559 232.099 70.8405C232.233 71.7094 233.408 71.6807 233.408 71.6807" stroke="#A38C8B" stroke-width="1.03614" stroke-miterlimit="10" stroke-linecap="round" stroke-linejoin="round"/>
<path d="M231.884 74.1167C231.884 74.1167 234.021 74.7836 236.204 73.3455C234.348 73.3163 232.692 73.1048 231.63 72.3578L231.884 74.1167Z" fill="white"/>
<path d="M250.263 91.101C253.602 93.5325 265.927 121.241 265.927 121.241C265.927 121.241 267.486 127.432 260.998 128.971C260.998 128.971 253.311 130.061 254.128 123.974L255.4 122.114C255.4 122.114 246.123 109.701 242.062 103.851C238.002 98.0005 244.364 86.8038 250.263 91.101Z" fill="#A02C2C"/>
<path d="M245.021 108.014C243.903 106.464 242.878 105.025 242.062 103.851C238.344 98.493 243.366 88.6511 248.77 90.3327" stroke="#ECBDBB" stroke-width="0.852492" stroke-miterlimit="10" stroke-linecap="round" stroke-linejoin="round"/>
<path d="M36.3116 94.3328C36.3116 94.3328 36.328 94.3677 36.3576 94.4245C36.5267 94.721 36.6577 95.0303 36.7518 95.3469C37.4041 97.179 38.1856 101.277 34.5596 105.647C29.0031 106.798 25.75 104.186 24.4343 102.753C24.1988 102.521 23.987 102.261 23.8045 101.972C23.7681 101.92 23.7484 101.887 23.7484 101.887C22.6166 100.004 23.1078 97.6341 24.842 96.5914C26.5761 95.5487 28.8966 96.2285 30.0283 98.1107C28.8966 96.2285 29.3878 93.8582 31.1219 92.8155C32.856 91.7728 35.1799 92.4506 36.3116 94.3328Z" fill="#234850"/>
<path d="M289.595 184.31C289.595 184.31 289.582 184.332 289.56 184.371C289.456 184.582 289.33 184.776 289.185 184.951C288.389 186.029 286.348 188.051 282.457 187.66C279.663 184.928 279.904 182.065 280.217 180.762C280.258 180.539 280.326 180.317 280.42 180.102C280.437 180.061 280.448 180.037 280.448 180.037C281.088 178.667 282.631 178.036 283.894 178.625C285.156 179.215 285.66 180.802 285.02 182.173C285.66 180.802 287.204 180.171 288.466 180.761C289.729 181.351 290.235 182.939 289.595 184.31Z" fill="#234850"/>
<path d="M116.837 88.6743L116.023 87.7236C115.481 87.0912 115.117 86.3263 114.968 85.5072L113.045 74.9335C112.969 74.5138 113.226 74.1054 113.638 73.9933H113.638C114.07 73.8757 114.516 74.1253 114.642 74.5548L115.91 78.8707L115.332 73.0723C115.289 72.6391 115.598 72.2505 116.03 72.196C116.436 72.145 116.815 72.4066 116.911 72.8039L118.228 78.2474L118.29 72.1099C118.295 71.614 118.712 71.2224 119.207 71.2486C119.624 71.2707 119.966 71.5846 120.024 71.9974L120.879 78.0774L120.956 72.6712C120.962 72.2528 121.3 71.9149 121.718 71.9084C122.124 71.9022 122.465 72.2097 122.501 72.6133L123.357 82.1835L124.316 79.3119C124.494 78.7774 125.079 78.496 125.608 78.69H125.608C126.052 78.8527 126.321 79.3038 126.253 79.7714L125.572 84.4771C125.412 85.5886 124.844 86.6009 123.98 87.3184L122.605 88.461L123.428 92.3616L117.879 93.2989L116.837 88.6743Z" fill="#EBD2D1"/>
<path d="M123.066 82.7136C123.066 82.7136 119.792 83.1554 119.46 86.9839" stroke="#A38C8B" stroke-width="1.05091" stroke-miterlimit="10" stroke-linecap="round" stroke-linejoin="round"/>
<path d="M115.678 80.2475C115.678 80.2475 118.77 79.1841 121.58 78.9672" stroke="#A38C8B" stroke-width="1.05091" stroke-miterlimit="10" stroke-linecap="round" stroke-linejoin="round"/>
<path d="M131.284 86.7768L122.058 109.03L124.655 117.192C125.962 120.303 130.251 120.483 131.727 117.448C135.755 109.17 144.474 92.6518 144.474 92.6518C146.44 87.9568 137.263 73.5558 131.284 86.7768Z" fill="white"/>
<path d="M115.802 97.4223L114.292 92.9569L124.849 90.0012L126.055 94.4963L115.802 97.4223Z" fill="white"/>
<path d="M115.802 97.4223L114.292 92.9569L124.849 90.0012L126.055 94.4963L115.802 97.4223Z" stroke="white" stroke-width="1.05091" stroke-miterlimit="10" stroke-linecap="round" stroke-linejoin="round"/>
<path d="M126.289 92.6518L114.547 96.5556C114.547 96.5556 117.329 108 119.555 116.576C120.71 121.026 126.019 122.867 129.681 120.089L129.681 120.088C131.782 118.494 132.699 115.78 131.994 113.238L126.289 92.6518Z" fill="white"/>
<path d="M131.994 113.238L127.878 98.3861" stroke="#CFCFCF" stroke-width="1.05091" stroke-miterlimit="10" stroke-linecap="round" stroke-linejoin="round"/>
<path d="M117.693 100.143C118.349 100.143 118.881 99.6109 118.881 98.9549C118.881 98.2989 118.349 97.7672 117.693 97.7672C117.037 97.7672 116.505 98.2989 116.505 98.9549C116.505 99.6109 117.037 100.143 117.693 100.143Z" fill="#DACA40"/>
<path d="M192.711 95.2407L193.629 94.4566C194.239 93.935 194.7 93.2607 194.964 92.5025L198.376 82.7163C198.511 82.3279 198.327 81.9003 197.951 81.7321C197.557 81.5555 197.095 81.7266 196.91 82.117L195.058 86.0394L196.475 80.6017C196.581 80.1955 196.344 79.7789 195.94 79.6626C195.562 79.5533 195.162 79.746 195.011 80.1101L192.943 85.0994L193.801 79.243C193.87 78.7699 193.531 78.3345 193.055 78.2855V78.2855C192.655 78.2444 192.282 78.4923 192.165 78.8769L190.443 84.5416L191.177 79.3796C191.233 78.9801 190.962 78.6077 190.564 78.5391H190.564C190.179 78.4727 189.808 78.7146 189.713 79.0938L187.469 88.0833L186.984 85.2043C186.894 84.6685 186.379 84.3131 185.846 84.4189C185.399 84.5077 185.075 84.8973 185.07 85.3528L185.016 89.9376C185.003 91.0205 185.392 92.0696 186.108 92.8822L187.248 94.1762L185.882 97.7693L191.027 99.4909L192.711 95.2407Z" fill="#EBD2D1"/>
<path d="M187.667 88.6317C187.667 88.6317 190.72 89.5415 190.465 93.2386" stroke="#A38C8B" stroke-width="1.05091" stroke-miterlimit="10" stroke-linecap="round" stroke-linejoin="round"/>
<path d="M195.073 87.3856C195.073 87.3856 192.286 85.9107 189.642 85.2845" stroke="#A38C8B" stroke-width="1.05091" stroke-miterlimit="10" stroke-linecap="round" stroke-linejoin="round"/>
<path d="M178.545 90.3431L184.213 113.757L180.384 121.418C178.611 124.289 174.346 123.802 173.357 120.576C170.66 111.773 164.604 94.1045 164.604 94.1045C163.39 89.1618 174.686 76.3557 178.545 90.3431Z" fill="white"/>
<path d="M192.191 103.258L194.375 99.0801L184.403 94.5252L182.516 98.7792L192.191 103.258Z" fill="white"/>
<path d="M192.191 103.258L194.375 99.0801L184.403 94.5252L182.516 98.7792L192.191 103.258Z" stroke="white" stroke-width="1.05091" stroke-miterlimit="10" stroke-linecap="round" stroke-linejoin="round"/>
<path d="M182.57 96.9207L193.566 102.596C193.566 102.596 189.045 113.471 185.518 121.599C183.687 125.816 178.157 126.814 174.97 123.501L174.97 123.501C173.141 121.601 172.656 118.777 173.745 116.375L182.57 96.9207Z" fill="white"/>
<path d="M175.398 112.731L180.112 102.34" stroke="#CFCFCF" stroke-width="1.05091" stroke-miterlimit="10" stroke-linecap="round" stroke-linejoin="round"/>
<path d="M190.086 105.667C190.742 105.667 191.274 105.135 191.274 104.479C191.274 103.823 190.742 103.291 190.086 103.291C189.43 103.291 188.898 103.823 188.898 104.479C188.898 105.135 189.43 105.667 190.086 105.667Z" fill="#DACA40"/>
<path d="M156.915 247.531C156.915 247.531 156.966 248.761 157.029 250.304C157.147 252.858 157.299 256.27 157.318 256.357C157.348 256.493 154.831 257.856 154.831 257.856L151.774 257.381L151.128 252.962L150.532 248.875L156.915 247.531Z" fill="#EBD2D1"/>
<path d="M144.065 269.821H160.298C160.298 269.821 160.383 268.305 160.282 266.189C160.144 263.077 159.607 258.657 157.83 255.844C157.83 255.844 153.735 257.056 150.379 256.03C150.379 256.03 147.927 260.716 145.571 264.077C145.555 264.104 145.533 264.13 145.517 264.157C144.347 265.816 144.06 268.018 144.065 269.821Z" fill="black"/>
<path d="M150.558 264.369C150.558 264.369 152.807 261.3 154.507 257.669" stroke="#545454" stroke-width="1.05091" stroke-miterlimit="10" stroke-linecap="round" stroke-linejoin="round"/>
<path d="M141.73 269.821H160.814V266.189H154.155C154.155 266.189 154.192 260.455 148.363 260.455C142.534 260.455 141.73 265.391 141.73 269.821Z" fill="white"/>
<path d="M156.915 247.531C156.915 247.531 156.966 248.761 157.029 250.304C155.659 250.918 153.181 252.044 151.128 252.962L150.532 248.875L156.915 247.531Z" fill="#A38C8B"/>
<path d="M129.298 145.704C129.298 145.704 137.498 198.804 138.99 206.255C140.477 213.712 148.677 250.228 148.677 250.228C148.677 250.228 153.383 250.647 159.482 249.669C159.482 249.11 156.407 209.889 156.223 206.35C156.117 204.338 156.525 190.845 156.894 179.409C157.084 173.629 157.263 168.375 157.358 165.396C157.408 163.903 157.436 162.981 157.436 162.847C157.436 161.914 158.911 139.706 150.913 131.171C142.914 122.636 128.555 130.053 129.298 145.704Z" fill="black"/>
<path d="M146.974 216.377C149.485 216.086 151.156 212.707 150.708 208.829C150.259 204.951 147.86 202.042 145.349 202.333C142.839 202.623 141.167 206.003 141.616 209.881C142.064 213.759 144.463 216.667 146.974 216.377Z" stroke="#ECBDBB" stroke-width="1.05091" stroke-miterlimit="10" stroke-linecap="round" stroke-linejoin="round"/>
<path d="M151.844 165.756C151.844 165.756 152.962 205.698 152.962 209.611C152.962 213.524 156.13 247.433 156.13 247.433" stroke="#545454" stroke-width="1.05091" stroke-miterlimit="10" stroke-linecap="round" stroke-linejoin="round"/>
<path d="M151.587 154.756C151.587 154.756 150.081 166.607 156.894 179.409C157.084 173.629 157.263 168.375 157.358 165.396L155.15 164.708C155.15 164.708 152.539 158.406 151.587 154.756Z" fill="#404B7C"/>
<path d="M150.081 146.528C150.081 146.528 151.735 159.401 155.15 164.708L157.358 165.396C157.358 165.396 154.481 156.444 153.995 146.528" stroke="#ECBDBB" stroke-width="1.05091" stroke-miterlimit="10" stroke-linecap="round" stroke-linejoin="round"/>
<path d="M181.03 247.531C181.03 247.531 181.082 248.761 181.145 250.304C181.263 252.858 181.414 256.27 181.433 256.357C181.463 256.493 178.946 257.856 178.946 257.856L175.89 257.381L175.244 252.962L174.647 248.875L181.03 247.531Z" fill="#EBD2D1"/>
<path d="M188.641 269.821H172.408C172.408 269.821 172.323 268.305 172.424 266.189C172.562 263.077 173.099 258.657 174.876 255.844C174.876 255.844 178.971 257.056 182.327 256.03C182.327 256.03 184.779 260.716 187.135 264.077C187.151 264.104 187.173 264.13 187.189 264.157C188.359 265.816 188.646 268.018 188.641 269.821Z" fill="black"/>
<path d="M182.148 264.369C182.148 264.369 179.899 261.3 178.199 257.669" stroke="#545454" stroke-width="1.05091" stroke-miterlimit="10" stroke-linecap="round" stroke-linejoin="round"/>
<path d="M190.975 269.821H171.892V266.189H178.551C178.551 266.189 178.514 260.455 184.343 260.455C190.172 260.455 190.975 265.391 190.975 269.821Z" fill="white"/>
<path d="M181.03 247.531C181.03 247.531 181.082 248.761 181.145 250.304C179.774 250.918 177.297 252.044 175.244 252.962L174.647 248.875L181.03 247.531Z" fill="#A38C8B"/>
<path d="M153.414 145.704C153.414 145.704 164.872 198.804 166.365 206.255C167.852 213.712 172.793 250.228 172.793 250.228C172.793 250.228 177.499 250.647 183.597 249.669C183.597 249.11 183.782 209.889 183.597 206.35C183.491 204.338 183.027 139.706 175.029 131.171C167.03 122.636 152.67 130.053 153.414 145.704Z" fill="black"/>
<path d="M177.739 216.377C180.265 216.303 182.221 213.079 182.106 209.177C181.992 205.275 179.852 202.171 177.325 202.245C174.799 202.319 172.843 205.543 172.957 209.445C173.072 213.347 175.212 216.451 177.739 216.377Z" stroke="#ECBDBB" stroke-width="1.05091" stroke-miterlimit="10" stroke-linecap="round" stroke-linejoin="round"/>
<path d="M161.134 166.661C161.134 166.661 169.689 205.92 170.1 209.811C170.512 213.702 173.989 247.433 173.989 247.433" stroke="#545454" stroke-width="1.05091" stroke-miterlimit="10" stroke-linecap="round" stroke-linejoin="round"/>
<path d="M173.271 122.927C172.293 115.101 177.743 100.01 174.948 84.6384C174.948 84.6384 166.703 78.6296 158.598 77.5117C150.494 76.3938 135.419 81.8197 135.419 81.8197C135.419 81.8197 134.424 119.713 134.144 122.507C133.865 125.302 126.039 146.403 126.039 146.403C126.039 146.403 133.336 151.839 143.939 154.787L152.683 144.586C152.683 144.586 158.355 153.834 159.951 156.525C166.908 156.027 174.31 153.735 181.516 148.359C181.516 148.359 174.249 130.752 173.271 122.927Z" fill="white"/>
<path d="M175.144 85.803C176.47 94.3304 175.367 102.717 174.349 109.766C174.349 109.766 173.193 117.041 173.187 119.46" fill="white"/>
<path d="M175.144 85.803C176.47 94.3304 175.367 102.717 174.349 109.766C174.349 109.766 173.193 117.041 173.187 119.46" stroke="#CFCFCF" stroke-width="1.05091" stroke-miterlimit="10" stroke-linecap="round" stroke-linejoin="round"/>
<path d="M134.399 119.058C134.924 111.363 134.793 91.9403 135.233 84.8242L134.399 119.058Z" fill="white"/>
<path d="M134.399 119.058C134.924 111.363 134.793 91.9403 135.233 84.8242" stroke="#CFCFCF" stroke-width="1.05091" stroke-miterlimit="10" stroke-linecap="round" stroke-linejoin="round"/>
<path d="M171.874 134.804L172.945 138.577L162.278 141.372L161.16 137.553L171.874 134.804Z" fill="#404B7C"/>
<path d="M136.634 133.773L135.336 137.474L145.814 140.91L147.162 137.165L136.634 133.773Z" fill="#404B7C"/>
<path d="M153.288 143.957L156.083 141.058C156.083 141.058 154.127 130.193 153.987 112.307" stroke="#CFCFCF" stroke-width="1.05091" stroke-miterlimit="10" stroke-linecap="round" stroke-linejoin="round"/>
<path d="M157.9 75.765C157.9 75.765 161.463 76.4637 167.612 79.8174C167.612 79.8174 170.663 83.7533 172.339 89.6223L165.352 91.0197L168.52 97.1682L153.987 111.608L143.181 96.1435L147.093 88.9702L140.293 87.666C140.293 87.666 143.553 80.749 145.323 78.9789C147.093 77.2089 155.105 75.3923 157.9 75.765Z" fill="#1E1E1F"/>
<path d="M158.04 77.6165C160.081 78.0247 164.231 79.8666 166.322 80.8309C165.198 84.979 160.259 101.021 154.173 108.72C154.173 108.72 149.404 89.2152 147.358 79.445C150.048 78.6984 155.914 77.1914 158.04 77.6165Z" fill="white"/>
<path d="M151.826 98.9798C152.259 96.0792 153.508 88.3952 155.291 83.1944L157.376 82.7519L158.831 83.6602C158.831 83.6602 159.921 90.5919 159.752 99.0423C158.083 102.693 156.192 106.166 154.173 108.72C154.173 108.72 153.138 104.487 151.826 98.9798Z" fill="#3A3A3A"/>
<path d="M158.459 87.2934C158.459 87.2934 156.328 87.0838 155.07 87.1536L158.459 87.2934Z" fill="#3A3A3A"/>
<path d="M158.459 87.2934C158.459 87.2934 156.328 87.0838 155.07 87.1536" stroke="#CFCFCF" stroke-width="1.05091" stroke-miterlimit="10" stroke-linecap="round" stroke-linejoin="round"/>
<path d="M156.897 83.567C156.897 83.567 159.645 84.8713 162.487 87.666C162.487 87.666 163.139 77.698 157.875 76.7199C152.612 75.7417 151.168 86.2686 151.168 86.2686C151.168 86.2686 152.519 84.8713 156.897 83.567Z" fill="white"/>
<path d="M154.159 78.2856C151.887 81.0281 151.168 86.2686 151.168 86.2686C151.168 86.2686 152.519 84.8712 156.897 83.567C156.897 83.567 159.645 84.8712 162.487 87.666C162.487 87.666 162.822 82.5358 161.068 79.275" stroke="#CFCFCF" stroke-width="1.05091" stroke-miterlimit="10" stroke-linecap="round" stroke-linejoin="round"/>
<path d="M155.955 80.6921C155.955 80.6921 157.458 81.7374 159.515 80.9716L160.225 75.9242L161.008 70.385L156.033 66.1146L155.988 66.0755V66.4221L155.983 69.2727L155.955 80.6921Z" fill="#EBD2D1"/>
<path d="M155.983 69.2727C156.212 71.4918 157.106 74.6387 160.225 75.9242L161.008 70.385L156.033 66.1146C156.01 66.232 155.999 66.3326 155.988 66.4221C155.955 66.7015 155.955 66.8692 155.955 66.8804C155.955 66.8804 155.843 67.8977 155.983 69.2727Z" fill="#A38C8B"/>
<path d="M164.904 64.7523C164.904 64.7523 166.08 63.0406 167.458 63.8992C168.836 64.7579 167.709 68.4229 164.676 68.8127L164.904 64.7523Z" fill="#EBD2D1"/>
<path d="M166.903 64.9836C166.903 64.9836 165.914 65.3991 165.192 67.0829" stroke="#A38C8B" stroke-width="1.05091" stroke-miterlimit="10" stroke-linecap="round" stroke-linejoin="round"/>
<path d="M160.146 57.1266C164.582 56.5464 166.009 62.9491 165.739 67.7233C165.47 72.4976 161.673 75.7705 157.474 72.3492C153.276 68.9279 151.075 58.3131 160.146 57.1266Z" fill="#EBD2D1"/>
<path d="M155.992 73.3699L156.011 70.4685L155.878 67.6851L154.933 64.4667C154.933 64.4667 158.482 64.3827 156.865 60.382C156.865 60.382 161.656 65.015 165.991 64.2987C170.328 63.588 173.068 58.2132 172.168 56.7946C171.312 55.435 169.413 57.1882 169.262 57.3306C169.449 57.0046 173.089 50.7483 170.061 47.564C166.956 44.3 159.88 51.2587 155.792 55.4774C155.166 56.1221 154.552 56.723 153.965 57.2883C154.264 56.2415 154.709 54.5643 155.029 52.8309C155.553 49.9696 151.424 51.2111 152.441 58.6802C152.441 58.6802 149.077 54.9621 147.417 56.1783C146.016 57.1961 148.82 59.2014 151.303 59.819C149.416 61.6681 148.166 63.2016 148.216 64.9712C148.299 67.9321 155.992 73.3699 155.992 73.3699Z" fill="#061B20"/>
<path d="M154.85 66.183C154.85 66.183 153.979 64.337 151.859 64.9851C149.739 65.6331 151.343 70.3301 155.646 69.0912L154.85 66.183Z" fill="#EBD2D1"/>
<path d="M154.665 67.879C154.665 67.879 153.828 66.073 151.989 66.0932" stroke="#A38C8B" stroke-width="1.05091" stroke-miterlimit="10" stroke-linecap="round" stroke-linejoin="round"/>
<path d="M152.946 67.8937C152.946 67.8937 152.9 67.1582 153.445 66.5121" stroke="#A38C8B" stroke-width="1.05091" stroke-miterlimit="10" stroke-linecap="round" stroke-linejoin="round"/>
<path d="M157.522 64.324C157.522 64.324 158.256 62.5095 159.634 63.0773C159.634 63.0773 159.64 62.6773 159.986 62.6424C160.333 62.6075 160.449 63.6914 160.449 63.6914C160.449 63.6914 158.846 63.6799 157.522 64.324Z" fill="#061B20"/>
<path d="M165.426 63.5547C165.426 63.5547 164.708 61.915 163.911 62.7363C163.911 62.7363 163.772 62.4358 163.55 62.4782C163.164 62.5515 163.444 63.5418 163.444 63.5418C163.444 63.5418 164.495 63.1764 165.426 63.5547Z" fill="#061B20"/>
<path d="M159.73 67.4699C160.135 67.4522 160.446 67.0314 160.424 66.5301C160.402 66.0288 160.056 65.6368 159.65 65.6546C159.245 65.6723 158.934 66.093 158.956 66.5943C158.978 67.0956 159.324 67.4876 159.73 67.4699Z" fill="#1C2443"/>
<path d="M159.838 66.4285C159.946 66.4285 160.033 66.341 160.033 66.2331C160.033 66.1252 159.946 66.0377 159.838 66.0377C159.73 66.0377 159.642 66.1252 159.642 66.2331C159.642 66.341 159.73 66.4285 159.838 66.4285Z" fill="white"/>
<path d="M164.055 67.2808C164.46 67.2631 164.771 66.8424 164.749 66.3411C164.727 65.8398 164.381 65.4478 163.975 65.4655C163.57 65.4832 163.259 65.904 163.281 66.4052C163.303 66.9065 163.649 67.2985 164.055 67.2808Z" fill="#1C2443"/>
<path d="M164.163 66.2395C164.271 66.2395 164.358 66.152 164.358 66.0441C164.358 65.9361 164.271 65.8486 164.163 65.8486C164.055 65.8486 163.967 65.9361 163.967 66.0441C163.967 66.152 164.055 66.2395 164.163 66.2395Z" fill="white"/>
<path d="M162.563 68.3185C162.563 68.3185 163.452 68.6011 163.289 69.2402C163.099 69.9809 162.04 69.7596 162.04 69.7596" stroke="#A38C8B" stroke-width="1.05091" stroke-miterlimit="10" stroke-linecap="round" stroke-linejoin="round"/>
<path d="M159.636 68.6292C160.761 68.6292 161.673 67.7173 161.673 66.5923C161.673 65.4673 160.761 64.5554 159.636 64.5554C158.511 64.5554 157.599 65.4673 157.599 66.5923C157.599 67.7173 158.511 68.6292 159.636 68.6292Z" stroke="#10282E" stroke-width="1.05091" stroke-miterlimit="10" stroke-linecap="round" stroke-linejoin="round"/>
<path d="M164.657 68.2777C165.782 68.2777 166.694 67.3657 166.694 66.2407C166.694 65.1158 165.782 64.2038 164.657 64.2038C163.532 64.2038 162.62 65.1158 162.62 66.2407C162.62 67.3657 163.532 68.2777 164.657 68.2777Z" stroke="#10282E" stroke-width="1.05091" stroke-miterlimit="10" stroke-linecap="round" stroke-linejoin="round"/>
<path d="M162.58 71.1622C162.58 71.1622 160.958 71.8148 159.308 70.2505" stroke="#A38C8B" stroke-width="1.05091" stroke-miterlimit="10" stroke-linecap="round" stroke-linejoin="round"/>
<path d="M99.2573 184.431V187.377" stroke="#6B81BE" stroke-miterlimit="10" stroke-linecap="round" stroke-linejoin="round"/>
<path d="M99.2573 190.522V193.469" stroke="#6B81BE" stroke-miterlimit="10" stroke-linecap="round" stroke-linejoin="round"/>
<path d="M103.776 188.95H100.83" stroke="#6B81BE" stroke-miterlimit="10" stroke-linecap="round" stroke-linejoin="round"/>
<path d="M97.6847 188.95H94.7382" stroke="#6B81BE" stroke-miterlimit="10" stroke-linecap="round" stroke-linejoin="round"/>
<path d="M276.869 152.587V154.573" stroke="#76B2BF" stroke-miterlimit="10" stroke-linecap="round" stroke-linejoin="round"/>
<path d="M276.869 156.692V158.678" stroke="#76B2BF" stroke-miterlimit="10" stroke-linecap="round" stroke-linejoin="round"/>
<path d="M279.915 155.633H277.929" stroke="#76B2BF" stroke-miterlimit="10" stroke-linecap="round" stroke-linejoin="round"/>
<path d="M275.809 155.633H273.824" stroke="#76B2BF" stroke-miterlimit="10" stroke-linecap="round" stroke-linejoin="round"/>
<path d="M265.409 63.8805V65.7468" stroke="#76B2BF" stroke-miterlimit="10" stroke-linecap="round" stroke-linejoin="round"/>
<path d="M265.409 67.7389V69.6051" stroke="#76B2BF" stroke-miterlimit="10" stroke-linecap="round" stroke-linejoin="round"/>
<path d="M268.271 66.7428H266.405" stroke="#76B2BF" stroke-miterlimit="10" stroke-linecap="round" stroke-linejoin="round"/>
<path d="M264.413 66.7428H262.546" stroke="#76B2BF" stroke-miterlimit="10" stroke-linecap="round" stroke-linejoin="round"/>
<path d="M47.1777 68.5309V70.3971" stroke="#76B2BF" stroke-miterlimit="10" stroke-linecap="round" stroke-linejoin="round"/>
<path d="M47.1777 72.3892V74.2555" stroke="#76B2BF" stroke-miterlimit="10" stroke-linecap="round" stroke-linejoin="round"/>
<path d="M50.04 71.3932H48.1738" stroke="#76B2BF" stroke-miterlimit="10" stroke-linecap="round" stroke-linejoin="round"/>
<path d="M46.1817 71.3932H44.3154" stroke="#76B2BF" stroke-miterlimit="10" stroke-linecap="round" stroke-linejoin="round"/>
<path d="M35.601 188.263V189.736" stroke="#76B2BF" stroke-miterlimit="10" stroke-linecap="round" stroke-linejoin="round"/>
<path d="M35.601 191.309V192.782" stroke="#76B2BF" stroke-miterlimit="10" stroke-linecap="round" stroke-linejoin="round"/>
<path d="M37.8605 190.522H36.3873" stroke="#76B2BF" stroke-miterlimit="10" stroke-linecap="round" stroke-linejoin="round"/>
<path d="M34.8147 190.522H33.3414" stroke="#76B2BF" stroke-miterlimit="10" stroke-linecap="round" stroke-linejoin="round"/>
<path d="M20.7733 142.471C22.0629 142.471 23.1083 141.425 23.1083 140.135C23.1083 138.846 22.0629 137.8 20.7733 137.8C19.4837 137.8 18.4382 138.846 18.4382 140.135C18.4382 141.425 19.4837 142.471 20.7733 142.471Z" stroke="#76B2BF" stroke-miterlimit="10" stroke-linecap="round" stroke-linejoin="round"/>
<path d="M216.87 52.2536C218.306 52.2536 219.47 51.0895 219.47 49.6535C219.47 48.2175 218.306 47.0534 216.87 47.0534C215.434 47.0534 214.27 48.2175 214.27 49.6535C214.27 51.0895 215.434 52.2536 216.87 52.2536Z" fill="#76B2BF"/>
<path d="M286.69 112.679C287.82 112.679 288.737 111.763 288.737 110.633C288.737 109.503 287.82 108.586 286.69 108.586C285.56 108.586 284.644 109.503 284.644 110.633C284.644 111.763 285.56 112.679 286.69 112.679Z" fill="#76B2BF"/>
<path d="M47.1777 166.868C47.1777 166.868 56.1151 177.1 77.4602 175.625C98.8053 174.149 104.756 162.395 104.756 162.395L99.5943 138.492L56.1418 144.021L47.1777 166.868Z" fill="#671515"/>
<path d="M89.7066 247.289L89.3623 255.207C89.3623 255.207 87.5917 256.388 85.4277 255.207L84.8375 246.699L89.7066 247.289Z" fill="#EBD2D1"/>
<path d="M82.4768 262.142C82.2649 264.215 82.5229 266.792 83.1162 269.728L84.8376 269.728C84.8376 269.728 85.6245 265.093 86.5098 263.027C87.395 260.962 83.3129 260.322 82.4768 262.142Z" fill="#671515"/>
<path d="M84.8376 254.027C84.8376 254.027 86.7065 254.961 89.9525 254.027C89.9525 254.027 95.2642 262.978 97.0839 264.601C98.9037 266.224 102.887 267.995 104.265 268.732C105.642 269.47 95.1166 270.011 92.6575 269.568C90.1984 269.126 88.1328 266.027 86.0671 264.355C84.0015 262.683 82.4768 262.142 82.4768 262.142C82.4768 262.142 83.0178 257.568 84.8376 254.027Z" fill="#A02C2C"/>
<path d="M97.7233 141.399C97.7233 141.399 100.92 158.172 100.478 165.106C100.035 172.04 96.1986 201.549 96.1986 201.549L91.3296 248.027C91.3296 248.027 85.7966 249.059 83.2145 247.658C83.2145 247.658 82.403 234.674 81.5178 227.886C80.6325 221.099 81.5178 214.607 82.1079 209.222C82.1079 209.222 78.3455 186.795 77.4602 167.023C76.5749 147.252 79.2308 136.334 86.9032 135.596C94.5756 134.858 97.7233 141.399 97.7233 141.399Z" fill="#404B7C"/>
<path d="M85.7228 246.453C85.7228 246.453 83.8539 229.141 83.9522 225.009C84.0506 220.878 85.231 209.369 85.231 209.369L82.0693 166.311" stroke="#9AB3DA" stroke-width="0.993116" stroke-miterlimit="10" stroke-linecap="round" stroke-linejoin="round"/>
<path d="M56.4016 246.791L55.4667 255.3C55.4667 255.3 53.6962 256.481 51.5322 255.3L51.5325 246.201L56.4016 246.791Z" fill="#EBD2D1"/>
<path d="M48.5812 262.235C48.3693 264.308 48.6273 266.885 49.2206 269.821L50.942 269.821C50.942 269.821 51.7289 265.186 52.6142 263.12C53.4995 261.054 49.4173 260.415 48.5812 262.235Z" fill="#671515"/>
<path d="M50.942 254.12C50.942 254.12 52.8109 255.054 56.0569 254.12C56.0569 254.12 61.3686 263.071 63.1884 264.694C65.0081 266.317 68.9919 268.088 70.369 268.825C71.7461 269.563 61.2211 270.104 58.762 269.661C56.3029 269.219 54.2372 266.12 52.1715 264.448C50.1059 262.776 48.5812 262.235 48.5812 262.235C48.5812 262.235 49.1222 257.661 50.942 254.12Z" fill="#A02C2C"/>
<path d="M81.3333 150.148L80.0423 167.509C80.0423 167.509 68.6074 200.757 66.2467 207.987C63.8859 215.216 58.6726 246.447 58.6726 246.447C58.6726 246.447 57.0988 247.896 53.656 247.896C50.2132 247.896 49.4263 246.25 49.4263 246.25C49.4263 246.25 48.6886 222.741 49.4263 216.692C50.1641 210.642 52.5248 201.494 52.6724 197.216C52.8199 192.937 52.5248 169.477 53.5576 159.739C54.5905 150.001 59.1644 134.982 69.714 135.04C80.2636 135.098 81.8464 143.249 81.3333 150.148Z" fill="#404B7C"/>
<path d="M58.6726 150.837C58.6726 150.837 56.4102 180.149 56.4102 185.756C56.4102 191.363 55.525 198.347 55.0331 202.183C54.5413 206.019 52.7707 216.052 52.4757 223.528C52.1806 231.004 51.9838 245.267 51.9838 245.267" stroke="#9AB3DA" stroke-width="0.993116" stroke-miterlimit="10" stroke-linecap="round" stroke-linejoin="round"/>
<path d="M84.3949 148.82L83.6148 162.734C83.5477 163.93 82.9882 165.045 82.0694 165.814L80.0423 167.509" stroke="#9AB3DA" stroke-width="0.993116" stroke-miterlimit="10" stroke-linecap="round" stroke-linejoin="round"/>
<path d="M81.3333 149.226L80.0423 167.509" stroke="#9AB3DA" stroke-width="0.993116" stroke-miterlimit="10" stroke-linecap="round" stroke-linejoin="round"/>
<path d="M76.5676 84.1122C76.5676 84.1122 86.6289 73.4977 103.289 58.4128L106.212 59.2771C106.212 59.2771 111.652 63.6586 111.955 66.1617C112.258 68.6647 97.4504 85.3282 87.9887 92.2393C78.527 99.1504 76.5676 84.1122 76.5676 84.1122Z" fill="#A02C2C"/>
<path d="M102.092 57.7244C102.092 57.7244 102.553 63.9397 108.624 67.303C113.1 69.7827 115.976 67.7984 115.976 67.7984L117.015 63.6804C117.015 63.6804 114.756 58.9749 111.01 56.0746C107.263 53.1743 103.946 52.9357 103.946 52.9357L102.092 57.7244Z" fill="#671515"/>
<path d="M122.256 27.4596L119.074 36.5908C118.83 37.298 118.398 37.9272 117.826 38.4108L116.687 38.9204C116.198 40.1372 113.032 62.4972 113.032 62.4972C108.024 60.3132 105.143 54.8688 105.143 54.8688L110.525 42.1964L112.054 38.3536L110.811 36.9444C110.146 36.1852 109.782 35.2076 109.792 34.1936L109.844 29.9192C109.849 29.4928 110.151 29.1288 110.567 29.0456C111.066 28.9468 111.544 29.2796 111.628 29.7788L112.08 32.4672L114.176 24.0796C114.254 23.7676 114.534 23.5492 114.852 23.5492C114.893 23.5492 114.93 23.5544 114.971 23.5596C115.34 23.6272 115.595 23.9704 115.538 24.3448L114.857 29.16L116.464 23.8768C116.562 23.544 116.869 23.3204 117.207 23.3204C117.233 23.3204 117.264 23.3204 117.29 23.3256C117.738 23.3724 118.055 23.778 117.987 24.22L117.186 29.68L119.116 25.026C119.23 24.7504 119.495 24.5788 119.781 24.5788C119.849 24.5788 119.916 24.5892 119.984 24.61C120.358 24.7192 120.582 25.1092 120.483 25.4836L119.162 30.5588L120.889 26.898C121.014 26.6328 121.279 26.4768 121.56 26.4768C121.658 26.4768 121.762 26.4976 121.861 26.5392C122.21 26.6952 122.381 27.0956 122.256 27.4596Z" fill="#EBD2D1"/>
<path d="M112.265 33.0517C112.265 33.0517 115.114 33.9005 114.876 37.3496" stroke="#A38C8B" stroke-width="1.05091" stroke-miterlimit="10" stroke-linecap="round" stroke-linejoin="round"/>
<path d="M119.175 31.8891C119.175 31.8891 116.575 30.5131 114.109 29.9289" stroke="#A38C8B" stroke-width="1.05091" stroke-miterlimit="10" stroke-linecap="round" stroke-linejoin="round"/>
<path d="M74.2895 59.2717C74.2895 59.2717 73.5204 54.7165 70.5552 52.8607C67.59 51.005 64.367 53.6422 62.6349 57.5396C60.9028 61.4371 62.7984 65.8335 68.5118 63.4445C73.0003 61.5677 74.2895 59.2717 74.2895 59.2717Z" fill="#061B20"/>
<path d="M73.4248 59.0682C73.4248 59.0682 67.3559 60.1987 66.3895 65.0819C65.423 69.9651 72.4461 76.2814 77.7328 75.0518C83.0194 73.8222 83.1746 69.645 83.1746 69.645C83.1746 69.645 87.1826 70.5597 88.4726 66.8289C89.7627 63.098 88.0499 61.8044 85.9249 61.5405C85.9249 61.5405 88.1779 57.1142 83.9998 55.2909C79.8217 53.4676 75.8068 54.7226 73.4248 59.0682Z" fill="#061B20"/>
<path d="M73.4248 59.0682C73.4226 59.0686 68.9633 59.9 67.082 63.2138" stroke="#234850" stroke-width="0.993116" stroke-miterlimit="10" stroke-linecap="round" stroke-linejoin="round"/>
<path d="M77.4603 80.7274L66.6893 90.0966C66.6893 90.0966 55.6233 144.837 56.066 144.837C56.5086 144.837 70.919 149.41 84.0015 146.902C97.084 144.394 99.4447 141 99.4447 141L93.1002 105.589L92.2413 87.4404C92.0799 84.031 89.3541 81.3024 85.9449 81.1376L77.4603 80.7274Z" fill="#671515"/>
<path d="M56.066 144.836C56.5086 144.836 70.919 149.41 84.0015 146.902C97.084 144.394 99.4447 141 99.4447 141" stroke="#404B7C" stroke-width="0.993116" stroke-miterlimit="10" stroke-linecap="round" stroke-linejoin="round"/>
<path d="M62.4105 143.754C62.4105 143.754 83.5588 145.82 97.2315 139.623" stroke="#404B7C" stroke-width="0.993116" stroke-miterlimit="10" stroke-linecap="round" stroke-linejoin="round"/>
<path d="M77.4602 123.885C76.1795 146.212 67.7221 164.608 67.7221 164.608C59.3592 169.329 47.1777 166.868 47.1777 166.868C47.1777 166.868 55.1334 134.803 57.0988 121.819C59.0641 108.835 60.5691 89.654 60.5691 89.654C60.5691 89.654 68.7196 82.5068 74.5211 80.3113C74.2555 83.0675 73.2758 94.4758 74.2614 102.638C75.3946 111.981 77.4602 123.885 77.4602 123.885Z" fill="#A02C2C"/>
<path d="M80.0423 80.3113C80.0423 80.3113 81.1327 79.7355 83.0111 78.8998C87.5105 76.8979 92.5838 80.1797 92.5838 85.1044V90.3917C92.5838 90.3917 95.6823 100.72 95.8298 102.564C95.9774 104.409 94.4281 110.827 94.4281 110.827C94.4281 110.827 103.724 146.755 104.756 162.395C104.756 162.395 99.2234 162.099 93.4691 160.698C93.4691 160.698 93.4936 147.296 93.0018 137.361C92.51 127.426 90.9362 120.737 90.9362 120.737C90.9362 120.737 85.3294 97.3264 84.0015 92.4082C82.6736 87.49 80.0423 80.3113 80.0423 80.3113Z" fill="#A02C2C"/>
<path d="M97.6274 123.883C95.8416 116.29 94.4281 110.827 94.4281 110.827C94.4281 110.827 95.9773 104.409 95.8298 102.564C95.6822 100.72 92.5838 90.3917 92.5838 90.3917L92.7216 85.429C92.7947 82.8 91.2959 80.3798 88.9098 79.2737L87.1033 78.4363" stroke="#ECBDBB" stroke-width="0.852492" stroke-miterlimit="10" stroke-linecap="round" stroke-linejoin="round"/>
<path d="M76.3782 78.3913C73.4051 78.8566 70.8206 85.4735 69.7141 91.3262L73.0461 94.3755L69.7141 100.277C69.7141 100.277 74.706 112.77 77.4603 123.885C77.4603 123.885 76.1815 105.786 75.2962 95.8018C75.4684 85.5473 80.1899 85.174 84.0015 94.8181C87.6902 105.491 90.9362 120.737 90.9362 120.737C90.9362 120.737 91.3296 105.491 90.5427 97.2772L85.6245 93.4902L87.1 89.654C87.1 89.654 82.0342 77.506 76.3782 78.3913Z" fill="#A02C2C"/>
<path d="M90.8786 117.305C90.8786 117.305 91.3296 105.491 90.5427 97.2772L85.6245 93.4902L87.1 89.654C87.1 89.654 85.3839 85.5387 82.8342 82.2732" stroke="#ECBDBB" stroke-width="0.852492" stroke-miterlimit="10" stroke-linecap="round" stroke-linejoin="round"/>
<path d="M72.8634 81.8203C71.4655 84.3743 70.3476 87.9755 69.7141 91.3262L73.0461 94.3755L69.7141 100.277C69.7141 100.277 73.5254 109.815 76.3249 119.638" stroke="#ECBDBB" stroke-width="0.852492" stroke-miterlimit="10" stroke-linecap="round" stroke-linejoin="round"/>
<path d="M83.9995 94.8181C83.2618 97.5212 81.1489 98.7015 81.1489 98.7015C78.0032 98.4596 75.2942 95.8037 75.2942 95.8037V85.4223C75.2588 82.5953 74.6037 75.7905 74.3558 73.3117C74.2968 72.7333 74.2614 72.391 74.2614 72.391L79.1305 73.4298C79.1305 73.4298 79.2367 75.7256 79.4373 78.2811C79.6321 80.7126 79.9272 83.3862 80.3108 84.537C81.1017 86.8978 83.9995 94.8181 83.9995 94.8181Z" fill="#EBD2D1"/>
<path d="M79.4373 78.2811C76.6339 77.4135 75.1349 75.1472 74.3558 73.3117C74.2968 72.7333 74.2614 72.391 74.2614 72.391L79.1305 73.4298C79.1305 73.4298 79.2367 75.7256 79.4373 78.2811Z" fill="#A38C8B"/>
<path d="M83.7464 65.0213C83.7464 65.0213 84.7207 68.9451 83.4465 73.224C82.1722 77.503 78.6562 76.8645 75.7209 74.3203C72.7855 71.7761 72.2654 66.2159 72.2654 66.2159C72.2654 66.2159 72.09 61.5046 75.5586 60.4986C79.0271 59.4927 82.6799 61.2616 83.7464 65.0213Z" fill="#EBD2D1"/>
<path d="M75.5463 61.9685C75.5463 61.9685 78.9088 67.0174 85.2855 66.4912C85.2855 66.4912 83.6771 57.358 75.8506 59.0033C68.0242 60.6486 69.4485 67.007 72.753 69.0118C72.753 69.0118 75.47 67.3349 75.5463 61.9685Z" fill="#061B20"/>
<path d="M74.4869 71.5534L73.6017 68.6282C73.6017 68.6282 72.3645 66.4679 70.3696 66.9573C68.3747 67.4466 68.6162 72.6707 74.4869 71.5534Z" fill="#EBD2D1"/>
<path d="M70.5478 68.1593C70.5478 68.1593 72.5224 68.5878 73.6844 70.3229" stroke="#A38C8B" stroke-width="0.993116" stroke-miterlimit="10" stroke-linecap="round" stroke-linejoin="round"/>
<path d="M71.4478 70.3427C71.4478 70.3427 71.5199 69.5531 71.934 68.727" stroke="#A38C8B" stroke-width="0.993116" stroke-miterlimit="10" stroke-linecap="round" stroke-linejoin="round"/>
<path d="M72.9305 70.8924C73.6861 71.138 73.9618 72.3736 73.5462 73.6524C73.1306 74.9311 72.1812 75.7686 71.4256 75.523C70.67 75.2775 70.3943 74.0418 70.8099 72.7631C70.9703 72.2697 71.2101 71.8419 71.4876 71.5168" stroke="#DACA40" stroke-width="0.993116" stroke-miterlimit="10" stroke-linecap="round" stroke-linejoin="round"/>
<path d="M75.8418 66.5185C75.8418 66.5185 76.7181 64.7345 78.0717 65.4105C78.0717 65.4105 78.1072 65.0057 78.4609 64.9958C78.8145 64.9858 78.853 66.0922 78.853 66.0922C78.853 66.0922 77.2295 65.9631 75.8418 66.5185Z" fill="#061B20"/>
<path d="M83.4442 67.3456C83.4442 67.3456 83.3301 65.5314 82.284 66.0375C82.284 66.0375 82.2562 65.7027 82.0288 65.6655C81.6355 65.6013 81.558 66.6435 81.558 66.6435C81.558 66.6435 82.6882 66.6609 83.4442 67.3456Z" fill="#061B20"/>
<path d="M78.5066 68.6362C78.5212 68.1268 78.199 67.7044 77.787 67.6926C77.375 67.6809 77.0293 68.0843 77.0148 68.5936C77.0002 69.103 77.3224 69.5254 77.7344 69.5371C78.1464 69.5489 78.4921 69.1455 78.5066 68.6362Z" fill="#1C2443"/>
<path d="M77.9345 68.4908C78.044 68.4908 78.1329 68.402 78.1329 68.2924C78.1329 68.1828 78.044 68.094 77.9345 68.094C77.8249 68.094 77.736 68.1828 77.736 68.2924C77.736 68.402 77.8249 68.4908 77.9345 68.4908Z" fill="white"/>
<path d="M82.9009 68.7615C82.9154 68.2521 82.5932 67.8297 82.1812 67.818C81.7693 67.8062 81.4235 68.2096 81.409 68.7189C81.3945 69.2283 81.7167 69.6507 82.1286 69.6625C82.5406 69.6742 82.8863 69.2708 82.9009 68.7615Z" fill="#1C2443"/>
<path d="M82.3287 68.6161C82.4383 68.6161 82.5271 68.5273 82.5271 68.4177C82.5271 68.3081 82.4383 68.2193 82.3287 68.2193C82.2191 68.2193 82.1302 68.3081 82.1302 68.4177C82.1302 68.5273 82.2191 68.6161 82.3287 68.6161Z" fill="white"/>
<path d="M80.2184 68.4928L80.1807 70.297C80.1807 70.297 81.4713 70.3441 81.1619 71.0714C80.858 71.7858 79.8593 71.5059 79.8593 71.5059" stroke="#A38C8B" stroke-width="0.993116" stroke-miterlimit="10" stroke-linecap="round" stroke-linejoin="round"/>
<path d="M80.3504 73.4858C80.3504 73.4858 78.6603 74.028 77.104 72.3227" stroke="#A38C8B" stroke-width="0.993116" stroke-miterlimit="10" stroke-linecap="round" stroke-linejoin="round"/>
<path d="M221.725 269.821H276.627" stroke="#234850" stroke-miterlimit="10" stroke-linecap="round" stroke-linejoin="round"/>
<path d="M36.38 269.821H208.548" stroke="#234850" stroke-miterlimit="10" stroke-linecap="round" stroke-linejoin="round"/>
<path d="M90.9357 279.25H63.4993" stroke="#234850" stroke-miterlimit="10" stroke-linecap="round" stroke-linejoin="round"/>
<path d="M257.398 279.25H99.8691" stroke="#234850" stroke-miterlimit="10" stroke-linecap="round" stroke-linejoin="round"/>
<path d="M180.905 288.68H199.499" stroke="#234850" stroke-miterlimit="10" stroke-linecap="round" stroke-linejoin="round"/>
<path d="M91.15 288.68H174.768" stroke="#234850" stroke-miterlimit="10" stroke-linecap="round" stroke-linejoin="round"/>
<path d="M68.9478 122.66C65.9822 126.12 53.2736 225.869 53.2736 225.869C53.2736 225.869 62.1702 227.352 63.653 227.352C65.1357 227.352 66.3714 222.409 69.3369 221.915C72.3025 221.421 79.2221 226.61 79.9635 227.352V224.881C79.9635 224.881 130.872 238.72 163.74 238.72C196.608 238.72 248.505 226.116 248.505 226.116V223.151C248.505 223.151 253.201 222.656 258.143 227.352C263.086 232.047 270.5 236.001 276.184 236.248C276.184 236.248 259.376 124.626 258.388 121.413L253.155 118.49C253.155 118.49 209.572 132.207 160.337 132.207C111.102 132.207 73.7852 120.098 73.7852 120.098L68.9478 122.66Z" fill="#EAF7FA"/>
<path d="M77.1039 134.804C77.1039 134.804 105.329 154.314 135.336 160.152" stroke="#75A4AE" stroke-width="0.852492" stroke-miterlimit="10" stroke-linecap="round" stroke-linejoin="round"/>
<path d="M242.964 132.465C242.964 132.465 218.081 148.535 193.566 150.837" stroke="#75A4AE" stroke-width="0.852492" stroke-miterlimit="10" stroke-linecap="round" stroke-linejoin="round"/>
<path d="M250.259 136.247L248.904 214.673" stroke="#75A4AE" stroke-width="0.852492" stroke-miterlimit="10" stroke-linecap="round" stroke-linejoin="round"/>
<path d="M243.558 147.759C243.558 147.759 219.404 207.754 176.928 220.357" stroke="#75A4AE" stroke-width="0.852492" stroke-miterlimit="10" stroke-linecap="round" stroke-linejoin="round"/>
<path d="M83.4441 165.814C83.4441 165.814 114.62 215.415 154.686 215.662C154.686 215.662 178.174 214.355 194.375 198.052" stroke="#75A4AE" stroke-width="0.852492" stroke-miterlimit="10" stroke-linecap="round" stroke-linejoin="round"/>
<path d="M78.4067 163.7L79.821 217.145" stroke="#75A4AE" stroke-width="0.852492" stroke-miterlimit="10" stroke-linecap="round" stroke-linejoin="round"/>
<path d="M74.939 141.854L65.2581 219.122" stroke="#75A4AE" stroke-width="0.852492" stroke-miterlimit="10" stroke-linecap="round" stroke-linejoin="round"/>
<path d="M128.685 189.214C125.04 188.978 121.392 188.589 117.74 187.936C117.829 185.694 117.921 183.385 118.015 180.985C121.267 181.689 124.516 182.149 127.762 182.426C127.801 181.219 127.842 179.973 127.883 178.687C124.645 178.408 121.404 177.95 118.159 177.276C118.244 175.08 118.33 172.805 118.418 170.437C121.839 170.973 125.256 171.387 128.67 171.662C128.712 170.224 128.755 168.744 128.798 167.224C123.836 166.822 118.868 166.239 113.891 165.707C113.513 174.598 113.164 182.389 112.846 190.593C118.098 191.535 123.339 191.973 128.573 192.273C128.61 191.293 128.647 190.273 128.685 189.214Z" fill="#75A4AE" stroke="#75A4AE" stroke-width="0.25" stroke-miterlimit="10"/>
<path d="M147.744 189.731C144.197 189.653 140.651 189.53 137.108 189.319C137.595 183.226 138.151 175.977 138.769 167.72C137.219 167.577 135.669 167.418 134.12 167.243C133.351 177.252 132.684 185.579 132.125 192.088C137.248 192.562 142.369 192.946 147.49 193.293C147.574 192.122 147.658 190.934 147.744 189.731Z" fill="#75A4AE" stroke="#75A4AE" stroke-width="0.25" stroke-miterlimit="10"/>
<path d="M162.418 194.139C165.536 194.142 168.005 193.44 169.125 192.745C168.879 191.33 168.633 189.955 168.387 188.616C167.154 189.308 165.152 189.82 163.232 189.905C157.544 190.084 154.261 186.678 154.359 181.224C154.467 175.159 158.283 171.77 163.482 171.51C165.608 171.384 167.275 171.688 168.487 172.081C168.84 170.97 169.191 169.897 169.541 168.864C168.596 168.495 166.403 168.032 163.336 168.105C155.545 168.079 149.604 173.483 149.426 181.857C149.264 189.287 154.175 193.88 162.418 194.139Z" fill="#75A4AE" stroke="#75A4AE" stroke-width="0.25" stroke-miterlimit="10"/>
<path d="M183.417 193.524C190.595 192.822 195.87 187.965 195.793 179.766C195.726 172.279 191.25 167.013 183.786 167.466C176.588 167.623 171.629 171.904 171.566 179.767C171.508 187.153 176.084 193.878 183.417 193.524ZM183.68 170.516C188.354 170.42 190.785 174.59 190.812 179.399C190.841 184.627 188.272 189.004 183.69 189.167C179.146 189.29 176.514 184.557 176.537 179.407C176.56 174.157 179.043 170.566 183.68 170.516Z" fill="#75A4AE" stroke="#75A4AE" stroke-width="0.25" stroke-miterlimit="10"/>
<path d="M95.1028 186.77C96.8151 187.019 98.5285 187.259 100.243 187.489C100.336 187.276 100.427 187.062 100.52 186.848C98.3696 184.623 96.3805 182.421 94.5677 180.31C94.7402 182.463 94.9178 184.616 95.1028 186.77Z" fill="#75A4AE"/>
<path d="M85.6376 169.062C85.5132 166.646 85.3828 164.23 85.2734 161.815C83.7556 161.566 82.2388 161.309 80.7227 161.045L83.4441 165.814C83.4441 165.814 84.2037 167.022 85.6376 169.062Z" fill="#75A4AE"/>
<path d="M106.993 164.861C105.691 168.507 104.367 172.149 103.024 175.784C101.971 178.721 101.004 181.479 100.197 184.145L100.12 184.135C100.073 181.399 99.887 178.57 99.6232 175.543C99.268 171.631 98.9333 167.719 98.6187 163.808C97.0267 163.593 95.4355 163.37 93.845 163.14C92.4031 166.742 90.9399 170.339 89.4555 173.93C89.4286 173.998 89.402 174.064 89.3751 174.132C90.17 175.165 91.0362 176.265 91.976 177.421C92.1286 177.054 92.2837 176.688 92.4359 176.32C93.6036 173.601 94.4313 171.283 95.2525 168.7L95.3271 168.711C95.2502 171.436 95.3733 173.851 95.6308 176.77C95.7948 178.626 95.9646 180.482 96.1379 182.337C97.9784 184.425 99.9963 186.6 102.175 188.797C105.437 181.019 108.591 173.213 111.631 165.38C110.085 165.215 108.539 165.042 106.993 164.861Z" fill="#75A4AE"/>
<path d="M84.6912 180.142L84.6147 180.129C84.605 177.606 84.529 174.356 84.4044 171.248C84.3434 169.797 84.2987 168.348 84.2432 166.897C82.8362 164.838 82.2348 163.555 82.2348 163.555L79.6437 158.852C79.5504 158.834 79.2474 158.783 79.1541 158.765C79.6351 167.338 80.2247 175.918 80.9229 184.502C82.6421 184.802 84.3624 185.094 86.0841 185.376C87.5663 182.037 89.0268 178.69 90.4709 175.339C89.5464 174.17 88.6948 173.059 87.9135 172.016C86.713 174.934 85.5326 177.673 84.6912 180.142Z" fill="#75A4AE"/>
<path d="M203.636 191.338C203.599 189.88 203.56 188.422 203.522 186.963C202.193 188.788 200.973 190.342 199.905 191.633C201.148 191.538 202.392 191.442 203.636 191.338Z" fill="#75A4AE"/>
<path d="M208.727 176.69C207.288 173.463 205.872 170.23 204.478 166.991C202.472 167.173 200.464 167.343 198.456 167.5C198.547 175.854 198.608 184.21 198.639 192.567C198.896 192.548 199.153 192.525 199.41 192.506C200.479 191.215 201.699 189.661 203.028 187.837C202.978 185.938 202.931 184.04 202.879 182.142C202.783 178.724 202.597 174.755 202.43 171.493L202.506 171.486C203.447 174.534 204.654 177.854 205.939 180.941C206.17 181.483 206.406 182.023 206.639 182.564C207.519 181.199 208.422 179.736 209.34 178.175C209.137 177.679 208.935 177.184 208.727 176.69Z" fill="#75A4AE"/>
<path d="M222.525 164.194C220.549 164.448 218.572 164.689 216.594 164.918C215.828 168.368 215.038 171.817 214.223 175.264C213.553 178.285 212.993 181.44 212.576 184.207L212.46 184.219C211.684 181.989 210.793 179.643 209.834 177.302C208.916 178.863 208.013 180.326 207.133 181.691C208.38 184.59 209.64 187.486 210.922 190.377C212.159 190.255 213.396 190.129 214.633 189.998C215.528 186.271 216.395 182.543 217.234 178.813C218.024 175.548 218.687 172.07 219.146 168.951L219.259 168.937C219.625 172.294 220.278 176.139 220.82 179.326C221.163 181.333 221.51 183.339 221.856 185.345C223.151 183.624 224.389 181.903 225.573 180.196C224.548 174.864 223.529 169.53 222.525 164.194Z" fill="#75A4AE"/>
<path d="M222.588 184.085C222.826 185.434 223.062 186.783 223.301 188.132C224.861 187.935 226.42 187.732 227.979 187.52C227.41 184.655 226.848 181.789 226.286 178.923C225.108 180.635 223.877 182.36 222.588 184.085Z" fill="#75A4AE"/>
<path d="M244.37 163.444C244.152 162.214 243.934 160.984 243.716 159.754C241.562 160.135 239.405 160.497 237.247 160.849C236.538 162.177 235.774 163.57 234.96 165.012C238.1 164.52 241.237 163.999 244.37 163.444Z" fill="#75A4AE"/>
<path d="M234.299 166.319C235.12 164.88 235.889 163.49 236.603 162.164C233.937 162.588 231.269 162.995 228.598 163.373C229.074 166.734 229.55 170.095 230.026 173.456C231.391 171.285 232.656 169.174 233.82 167.155C233.783 166.907 234.102 166.349 234.299 166.319Z" fill="#75A4AE"/>
<path d="M248.662 184.276C248.443 183.045 248.223 181.816 248.004 180.586C244.36 181.236 240.712 181.845 237.058 182.413C236.682 179.993 236.306 177.573 235.929 175.153C239.149 174.653 242.364 174.12 245.575 173.555C245.361 172.337 245.146 171.119 244.932 169.901C241.745 170.462 238.554 170.99 235.36 171.487C235.068 169.608 234.776 167.729 234.484 165.85C233.327 167.874 232.07 169.99 230.713 172.165C231.425 177.056 232.137 181.946 232.848 186.836C238.13 186.068 243.402 185.214 248.662 184.276Z" fill="#75A4AE"/>
<path d="M60.5691 89.654C64.7421 90.7241 70.7977 97.5584 68.4522 106.35C66.3544 114.214 59.009 131.332 56.5018 133.124C53.9946 134.916 49.6509 132.681 49.6509 132.681L49.6971 120.335C49.6971 120.335 54.6355 102.107 56.8653 96.1439C59.0951 90.1812 60.5691 89.654 60.5691 89.654Z" fill="#A02C2C"/>
<path d="M68.3276 106.807C66.0782 114.856 58.9616 131.366 56.5018 133.124C53.9946 134.916 49.6509 132.681 49.6509 132.681" stroke="#ECBDBB" stroke-width="0.852492" stroke-miterlimit="10" stroke-linecap="round" stroke-linejoin="round"/>
<path d="M51.9382 118.45C44.6694 118.273 42.8289 127.03 46.9623 133.266C51.0958 139.503 61.5541 135.058 61.746 128.165C61.9379 121.273 58.1538 118.602 51.9382 118.45Z" fill="#671515"/>
<path d="M67.1991 124.107C66.3575 125.948 65.1772 128.876 64.4973 130.581L57.0862 123.299C57.0862 123.299 52.4095 119.114 49.0689 124.717C45.7283 130.321 50.9232 133.273 50.9232 133.273C50.9232 133.273 57.1363 135.23 62.503 136.626L62.5051 136.619C65.0263 137.262 67.558 137.752 68.135 137.552C69.6578 137.019 70.5259 132.771 70.5259 132.771C70.5259 132.771 73.0934 132.117 75.6715 132.218C78.2516 132.314 78.7311 130.606 76.4636 130.154C76.4636 130.154 78.3075 130.027 78.5197 129.034C78.7129 128.103 76.8665 127.878 76.652 127.849C76.8562 127.815 78.418 127.541 78.4397 126.705C78.4677 125.849 76.2157 125.61 75.9923 125.585C76.1515 125.553 77.5705 125.234 77.5022 124.4C77.424 123.526 71.7353 123.26 69.0016 124.616C69.0016 124.616 69.8862 123.236 70.6184 122.01C71.3506 120.784 68.4509 121.38 67.1991 124.107Z" fill="#EBD2D1"/>
<path d="M75.7201 130.162C75.7201 130.162 72.4362 129.826 70.8091 130.072" stroke="#A38C8B" stroke-width="0.993116" stroke-miterlimit="10" stroke-linecap="round" stroke-linejoin="round"/>
<path d="M75.7889 127.814C75.7889 127.814 72.5184 127.57 70.9053 127.843" stroke="#A38C8B" stroke-width="0.993116" stroke-miterlimit="10" stroke-linecap="round" stroke-linejoin="round"/>
<path d="M75.4961 125.618C75.4961 125.618 72.3538 125.681 70.6967 126.095" stroke="#A38C8B" stroke-width="0.993116" stroke-miterlimit="10" stroke-linecap="round" stroke-linejoin="round"/>
<path d="M262.655 129.309C264.125 127.802 261.032 122.774 259.912 121.525C259.837 121.442 259.772 121.35 259.712 121.252C259.389 120.904 259.076 120.57 258.791 120.275C256.43 117.835 253.111 118.29 254.353 119.323C255.596 120.356 257.059 121.496 257.059 121.496C253.631 121.077 247.659 123.5 247.905 124.463C248.146 125.379 249.78 125.185 249.962 125.16C249.733 125.27 247.419 126.372 247.771 127.276C248.109 128.16 249.879 127.865 250.109 127.824C249.891 127.936 248.005 128.87 248.562 129.792C249.162 130.771 251.177 130.213 251.177 130.213C248.927 131.549 250.081 133.191 252.799 132.119C255.513 131.041 258.499 130.774 258.499 130.774C258.499 130.774 261.184 130.816 262.655 129.309Z" fill="#EBD2D1"/>
<path d="M251.974 129.942C251.974 129.942 255.353 128.349 257.182 128" stroke="#A38C8B" stroke-width="0.993116" stroke-miterlimit="10" stroke-linecap="round" stroke-linejoin="round"/>
<path d="M251.017 127.462C251.017 127.462 254.416 125.972 256.241 125.657" stroke="#A38C8B" stroke-width="0.993116" stroke-miterlimit="10" stroke-linecap="round" stroke-linejoin="round"/>
<path d="M250.504 125.009C250.504 125.009 253.882 123.893 255.806 123.712" stroke="#A38C8B" stroke-width="0.993116" stroke-miterlimit="10" stroke-linecap="round" stroke-linejoin="round"/>
</svg>
